<svg width="884" height="675" viewBox="0 0 884 675" fill="none" xmlns="http://www.w3.org/2000/svg">
<path d="M47.016 28.816L28.08 79H20.52L1.584 28.816H8.568L24.336 72.088L40.104 28.816H47.016ZM90.2003 57.76C90.2003 59.008 90.1283 60.328 89.9843 61.72H58.4483C58.6883 65.608 60.0083 68.656 62.4083 70.864C64.8563 73.024 67.8083 74.104 71.2643 74.104C74.0963 74.104 76.4483 73.456 78.3203 72.16C80.2403 70.816 81.5843 69.04 82.3523 66.832H89.4083C88.3523 70.624 86.2403 73.72 83.0723 76.12C79.9043 78.472 75.9683 79.648 71.2643 79.648C67.5203 79.648 64.1603 78.808 61.1843 77.128C58.2563 75.448 55.9523 73.072 54.2723 70C52.5923 66.88 51.7523 63.28 51.7523 59.2C51.7523 55.12 52.5683 51.544 54.2003 48.472C55.8323 45.4 58.1123 43.048 61.0403 41.416C64.0163 39.736 67.4243 38.896 71.2643 38.896C75.0083 38.896 78.3203 39.712 81.2003 41.344C84.0803 42.976 86.2883 45.232 87.8243 48.112C89.4083 50.944 90.2003 54.16 90.2003 57.76ZM83.4323 56.392C83.4323 53.896 82.8803 51.76 81.7763 49.984C80.6723 48.16 79.1603 46.792 77.2403 45.88C75.3683 44.92 73.2803 44.44 70.9763 44.44C67.6643 44.44 64.8323 45.496 62.4803 47.608C60.1763 49.72 58.8563 52.648 58.5203 56.392H83.4323ZM105.401 45.952C106.553 43.696 108.185 41.944 110.297 40.696C112.457 39.448 115.073 38.824 118.145 38.824V45.592H116.417C109.073 45.592 105.401 49.576 105.401 57.544V79H98.8487V39.544H105.401V45.952ZM139.676 79.648C136.652 79.648 133.94 79.144 131.54 78.136C129.14 77.08 127.244 75.64 125.852 73.816C124.46 71.944 123.692 69.808 123.548 67.408H130.316C130.508 69.376 131.42 70.984 133.052 72.232C134.732 73.48 136.916 74.104 139.604 74.104C142.1 74.104 144.068 73.552 145.508 72.448C146.948 71.344 147.668 69.952 147.668 68.272C147.668 66.544 146.9 65.272 145.364 64.456C143.828 63.592 141.452 62.752 138.236 61.936C135.308 61.168 132.908 60.4 131.036 59.632C129.212 58.816 127.628 57.64 126.284 56.104C124.988 54.52 124.34 52.456 124.34 49.912C124.34 47.896 124.94 46.048 126.14 44.368C127.34 42.688 129.044 41.368 131.252 40.408C133.46 39.4 135.98 38.896 138.812 38.896C143.18 38.896 146.708 40 149.396 42.208C152.084 44.416 153.524 47.44 153.716 51.28H147.164C147.02 49.216 146.18 47.56 144.644 46.312C143.156 45.064 141.14 44.44 138.596 44.44C136.244 44.44 134.372 44.944 132.98 45.952C131.588 46.96 130.892 48.28 130.892 49.912C130.892 51.208 131.3 52.288 132.116 53.152C132.98 53.968 134.036 54.64 135.284 55.168C136.58 55.648 138.356 56.2 140.612 56.824C143.444 57.592 145.748 58.36 147.524 59.128C149.3 59.848 150.812 60.952 152.06 62.44C153.356 63.928 154.028 65.872 154.076 68.272C154.076 70.432 153.476 72.376 152.276 74.104C151.076 75.832 149.372 77.2 147.164 78.208C145.004 79.168 142.508 79.648 139.676 79.648ZM160.877 59.128C160.877 55.096 161.693 51.568 163.325 48.544C164.957 45.472 167.189 43.096 170.021 41.416C172.901 39.736 176.093 38.896 179.597 38.896C183.053 38.896 186.053 39.64 188.597 41.128C191.141 42.616 193.037 44.488 194.285 46.744V39.544H200.909V79H194.285V71.656C192.989 73.96 191.045 75.88 188.453 77.416C185.909 78.904 182.933 79.648 179.525 79.648C176.021 79.648 172.853 78.784 170.021 77.056C167.189 75.328 164.957 72.904 163.325 69.784C161.693 66.664 160.877 63.112 160.877 59.128ZM194.285 59.2C194.285 56.224 193.685 53.632 192.485 51.424C191.285 49.216 189.653 47.536 187.589 46.384C185.573 45.184 183.341 44.584 180.893 44.584C178.445 44.584 176.213 45.16 174.197 46.312C172.181 47.464 170.573 49.144 169.373 51.352C168.173 53.56 167.573 56.152 167.573 59.128C167.573 62.152 168.173 64.792 169.373 67.048C170.573 69.256 172.181 70.96 174.197 72.16C176.213 73.312 178.445 73.888 180.893 73.888C183.341 73.888 185.573 73.312 187.589 72.16C189.653 70.96 191.285 69.256 192.485 67.048C193.685 64.792 194.285 62.176 194.285 59.2ZM171.605 35.296C171.941 32.848 172.733 30.976 173.981 29.68C175.277 28.384 176.885 27.736 178.805 27.736C179.717 27.736 180.485 27.904 181.109 28.24C181.781 28.528 182.573 28.96 183.485 29.536C184.157 30.016 184.757 30.4 185.285 30.688C185.813 30.928 186.389 31.048 187.013 31.048C187.829 31.048 188.525 30.784 189.101 30.256C189.677 29.728 190.037 28.96 190.181 27.952H193.925C193.637 30.352 192.845 32.2 191.549 33.496C190.253 34.792 188.645 35.44 186.725 35.44C185.813 35.44 184.997 35.296 184.277 35.008C183.605 34.672 182.837 34.192 181.973 33.568C181.205 33.088 180.581 32.728 180.101 32.488C179.669 32.248 179.141 32.128 178.517 32.128C177.701 32.128 177.005 32.392 176.429 32.92C175.901 33.448 175.565 34.24 175.421 35.296H171.605ZM229.19 79.648C225.494 79.648 222.134 78.808 219.11 77.128C216.134 75.448 213.782 73.072 212.054 70C210.374 66.88 209.534 63.28 209.534 59.2C209.534 55.168 210.398 51.616 212.126 48.544C213.902 45.424 216.302 43.048 219.326 41.416C222.35 39.736 225.734 38.896 229.478 38.896C233.222 38.896 236.606 39.736 239.63 41.416C242.654 43.048 245.03 45.4 246.758 48.472C248.534 51.544 249.422 55.12 249.422 59.2C249.422 63.28 248.51 66.88 246.686 70C244.91 73.072 242.486 75.448 239.414 77.128C236.342 78.808 232.934 79.648 229.19 79.648ZM229.19 73.888C231.542 73.888 233.75 73.336 235.814 72.232C237.878 71.128 239.534 69.472 240.782 67.264C242.078 65.056 242.726 62.368 242.726 59.2C242.726 56.032 242.102 53.344 240.854 51.136C239.606 48.928 237.974 47.296 235.958 46.24C233.942 45.136 231.758 44.584 229.406 44.584C227.006 44.584 224.798 45.136 222.782 46.24C220.814 47.296 219.23 48.928 218.03 51.136C216.83 53.344 216.23 56.032 216.23 59.2C216.23 62.416 216.806 65.128 217.958 67.336C219.158 69.544 220.742 71.2 222.71 72.304C224.678 73.36 226.838 73.888 229.19 73.888ZM340.304 28.816L325.76 79H318.416L306.752 38.608L294.656 79L287.384 79.072L273.344 28.816H280.328L291.272 71.368L303.368 28.816H310.712L322.232 71.224L333.248 28.816H340.304ZM383.474 57.76C383.474 59.008 383.402 60.328 383.258 61.72H351.722C351.962 65.608 353.282 68.656 355.682 70.864C358.13 73.024 361.082 74.104 364.538 74.104C367.37 74.104 369.722 73.456 371.594 72.16C373.514 70.816 374.858 69.04 375.626 66.832H382.682C381.626 70.624 379.514 73.72 376.346 76.12C373.178 78.472 369.242 79.648 364.538 79.648C360.794 79.648 357.434 78.808 354.458 77.128C351.53 75.448 349.226 73.072 347.546 70C345.866 66.88 345.026 63.28 345.026 59.2C345.026 55.12 345.842 51.544 347.474 48.472C349.106 45.4 351.386 43.048 354.314 41.416C357.29 39.736 360.698 38.896 364.538 38.896C368.282 38.896 371.594 39.712 374.474 41.344C377.354 42.976 379.562 45.232 381.098 48.112C382.682 50.944 383.474 54.16 383.474 57.76ZM376.706 56.392C376.706 53.896 376.154 51.76 375.05 49.984C373.946 48.16 372.434 46.792 370.514 45.88C368.642 44.92 366.554 44.44 364.25 44.44C360.938 44.44 358.106 45.496 355.754 47.608C353.45 49.72 352.13 52.648 351.794 56.392H376.706ZM398.674 46.888C400.018 44.536 401.986 42.616 404.578 41.128C407.17 39.64 410.122 38.896 413.434 38.896C416.986 38.896 420.178 39.736 423.01 41.416C425.842 43.096 428.074 45.472 429.706 48.544C431.338 51.568 432.154 55.096 432.154 59.128C432.154 63.112 431.338 66.664 429.706 69.784C428.074 72.904 425.818 75.328 422.938 77.056C420.106 78.784 416.938 79.648 413.434 79.648C410.026 79.648 407.026 78.904 404.434 77.416C401.89 75.928 399.97 74.032 398.674 71.728V79H392.122V25.72H398.674V46.888ZM425.458 59.128C425.458 56.152 424.858 53.56 423.658 51.352C422.458 49.144 420.826 47.464 418.762 46.312C416.746 45.16 414.514 44.584 412.066 44.584C409.666 44.584 407.434 45.184 405.37 46.384C403.354 47.536 401.722 49.24 400.474 51.496C399.274 53.704 398.674 56.272 398.674 59.2C398.674 62.176 399.274 64.792 400.474 67.048C401.722 69.256 403.354 70.96 405.37 72.16C407.434 73.312 409.666 73.888 412.066 73.888C414.514 73.888 416.746 73.312 418.762 72.16C420.826 70.96 422.458 69.256 423.658 67.048C424.858 64.792 425.458 62.152 425.458 59.128ZM466.526 28.816V79H459.974V28.816H466.526ZM496.916 38.824C501.716 38.824 505.604 40.288 508.58 43.216C511.556 46.096 513.044 50.272 513.044 55.744V79H506.564V56.68C506.564 52.744 505.58 49.744 503.612 47.68C501.644 45.568 498.956 44.512 495.548 44.512C492.092 44.512 489.332 45.592 487.268 47.752C485.252 49.912 484.244 53.056 484.244 57.184V79H477.692V39.544H484.244V45.16C485.54 43.144 487.292 41.584 489.5 40.48C491.756 39.376 494.228 38.824 496.916 38.824ZM521.299 59.128C521.299 55.096 522.115 51.568 523.747 48.544C525.379 45.472 527.611 43.096 530.443 41.416C533.323 39.736 536.539 38.896 540.091 38.896C543.163 38.896 546.019 39.616 548.659 41.056C551.299 42.448 553.315 44.296 554.707 46.6V25.72H561.331V79H554.707V71.584C553.411 73.936 551.491 75.88 548.947 77.416C546.403 78.904 543.427 79.648 540.019 79.648C536.515 79.648 533.323 78.784 530.443 77.056C527.611 75.328 525.379 72.904 523.747 69.784C522.115 66.664 521.299 63.112 521.299 59.128ZM554.707 59.2C554.707 56.224 554.107 53.632 552.907 51.424C551.707 49.216 550.075 47.536 548.011 46.384C545.995 45.184 543.763 44.584 541.315 44.584C538.867 44.584 536.635 45.16 534.619 46.312C532.603 47.464 530.995 49.144 529.795 51.352C528.595 53.56 527.995 56.152 527.995 59.128C527.995 62.152 528.595 64.792 529.795 67.048C530.995 69.256 532.603 70.96 534.619 72.16C536.635 73.312 538.867 73.888 541.315 73.888C543.763 73.888 545.995 73.312 548.011 72.16C550.075 70.96 551.707 69.256 552.907 67.048C554.107 64.792 554.707 62.176 554.707 59.2ZM575.787 33.136C574.539 33.136 573.483 32.704 572.619 31.84C571.755 30.976 571.323 29.92 571.323 28.672C571.323 27.424 571.755 26.368 572.619 25.504C573.483 24.64 574.539 24.208 575.787 24.208C576.987 24.208 577.995 24.64 578.811 25.504C579.675 26.368 580.107 27.424 580.107 28.672C580.107 29.92 579.675 30.976 578.811 31.84C577.995 32.704 576.987 33.136 575.787 33.136ZM578.955 39.544V79H572.403V39.544H578.955ZM604.09 79.648C601.066 79.648 598.354 79.144 595.954 78.136C593.554 77.08 591.658 75.64 590.266 73.816C588.874 71.944 588.106 69.808 587.962 67.408H594.73C594.922 69.376 595.834 70.984 597.466 72.232C599.146 73.48 601.33 74.104 604.018 74.104C606.514 74.104 608.482 73.552 609.922 72.448C611.362 71.344 612.082 69.952 612.082 68.272C612.082 66.544 611.314 65.272 609.778 64.456C608.242 63.592 605.866 62.752 602.65 61.936C599.722 61.168 597.322 60.4 595.45 59.632C593.626 58.816 592.042 57.64 590.698 56.104C589.402 54.52 588.754 52.456 588.754 49.912C588.754 47.896 589.354 46.048 590.554 44.368C591.754 42.688 593.458 41.368 595.666 40.408C597.874 39.4 600.394 38.896 603.226 38.896C607.594 38.896 611.122 40 613.81 42.208C616.498 44.416 617.938 47.44 618.13 51.28H611.578C611.434 49.216 610.594 47.56 609.058 46.312C607.57 45.064 605.554 44.44 603.01 44.44C600.658 44.44 598.786 44.944 597.394 45.952C596.002 46.96 595.306 48.28 595.306 49.912C595.306 51.208 595.714 52.288 596.53 53.152C597.394 53.968 598.45 54.64 599.698 55.168C600.994 55.648 602.77 56.2 605.026 56.824C607.858 57.592 610.162 58.36 611.938 59.128C613.714 59.848 615.226 60.952 616.474 62.44C617.77 63.928 618.442 65.872 618.49 68.272C618.49 70.432 617.89 72.376 616.69 74.104C615.49 75.832 613.786 77.2 611.578 78.208C609.418 79.168 606.922 79.648 604.09 79.648ZM634.291 46.816C635.587 44.56 637.507 42.688 640.051 41.2C642.643 39.664 645.643 38.896 649.051 38.896C652.555 38.896 655.723 39.736 658.555 41.416C661.435 43.096 663.691 45.472 665.323 48.544C666.955 51.568 667.771 55.096 667.771 59.128C667.771 63.112 666.955 66.664 665.323 69.784C663.691 72.904 661.435 75.328 658.555 77.056C655.723 78.784 652.555 79.648 649.051 79.648C645.691 79.648 642.715 78.904 640.123 77.416C637.579 75.88 635.635 73.984 634.291 71.728V97.72H627.739V39.544H634.291V46.816ZM661.075 59.128C661.075 56.152 660.475 53.56 659.275 51.352C658.075 49.144 656.443 47.464 654.379 46.312C652.363 45.16 650.131 44.584 647.683 44.584C645.283 44.584 643.051 45.184 640.987 46.384C638.971 47.536 637.339 49.24 636.091 51.496C634.891 53.704 634.291 56.272 634.291 59.2C634.291 62.176 634.891 64.792 636.091 67.048C637.339 69.256 638.971 70.96 640.987 72.16C643.051 73.312 645.283 73.888 647.683 73.888C650.131 73.888 652.363 73.312 654.379 72.16C656.443 70.96 658.075 69.256 659.275 67.048C660.475 64.792 661.075 62.152 661.075 59.128ZM693.604 79.648C689.908 79.648 686.548 78.808 683.524 77.128C680.548 75.448 678.196 73.072 676.468 70C674.788 66.88 673.948 63.28 673.948 59.2C673.948 55.168 674.812 51.616 676.54 48.544C678.316 45.424 680.716 43.048 683.74 41.416C686.764 39.736 690.148 38.896 693.892 38.896C697.636 38.896 701.02 39.736 704.044 41.416C707.068 43.048 709.444 45.4 711.172 48.472C712.948 51.544 713.836 55.12 713.836 59.2C713.836 63.28 712.924 66.88 711.1 70C709.324 73.072 706.9 75.448 703.828 77.128C700.756 78.808 697.348 79.648 693.604 79.648ZM693.604 73.888C695.956 73.888 698.164 73.336 700.228 72.232C702.292 71.128 703.948 69.472 705.196 67.264C706.492 65.056 707.14 62.368 707.14 59.2C707.14 56.032 706.516 53.344 705.268 51.136C704.02 48.928 702.388 47.296 700.372 46.24C698.356 45.136 696.172 44.584 693.82 44.584C691.42 44.584 689.212 45.136 687.196 46.24C685.228 47.296 683.644 48.928 682.444 51.136C681.244 53.344 680.644 56.032 680.644 59.2C680.644 62.416 681.22 65.128 682.372 67.336C683.572 69.544 685.156 71.2 687.124 72.304C689.092 73.36 691.252 73.888 693.604 73.888ZM741.674 38.824C746.474 38.824 750.362 40.288 753.338 43.216C756.314 46.096 757.802 50.272 757.802 55.744V79H751.322V56.68C751.322 52.744 750.338 49.744 748.37 47.68C746.402 45.568 743.714 44.512 740.306 44.512C736.85 44.512 734.09 45.592 732.026 47.752C730.01 49.912 729.002 53.056 729.002 57.184V79H722.45V39.544H729.002V45.16C730.298 43.144 732.05 41.584 734.258 40.48C736.514 39.376 738.986 38.824 741.674 38.824ZM771.889 33.136C770.641 33.136 769.585 32.704 768.721 31.84C767.857 30.976 767.425 29.92 767.425 28.672C767.425 27.424 767.857 26.368 768.721 25.504C769.585 24.64 770.641 24.208 771.889 24.208C773.089 24.208 774.097 24.64 774.913 25.504C775.777 26.368 776.209 27.424 776.209 28.672C776.209 29.92 775.777 30.976 774.913 31.84C774.097 32.704 773.089 33.136 771.889 33.136ZM775.057 39.544V79H768.505V39.544H775.057ZM800.912 72.952L813.152 39.544H820.136L804.656 79H797.024L781.544 39.544H788.6L800.912 72.952ZM862.583 57.76C862.583 59.008 862.511 60.328 862.367 61.72H830.831C831.071 65.608 832.391 68.656 834.791 70.864C837.239 73.024 840.191 74.104 843.647 74.104C846.479 74.104 848.831 73.456 850.703 72.16C852.623 70.816 853.967 69.04 854.735 66.832H861.791C860.735 70.624 858.623 73.72 855.455 76.12C852.287 78.472 848.351 79.648 843.647 79.648C839.903 79.648 836.543 78.808 833.567 77.128C830.639 75.448 828.335 73.072 826.655 70C824.975 66.88 824.135 63.28 824.135 59.2C824.135 55.12 824.951 51.544 826.583 48.472C828.215 45.4 830.495 43.048 833.423 41.416C836.399 39.736 839.807 38.896 843.647 38.896C847.391 38.896 850.703 39.712 853.583 41.344C856.463 42.976 858.671 45.232 860.207 48.112C861.791 50.944 862.583 54.16 862.583 57.76ZM855.815 56.392C855.815 53.896 855.263 51.76 854.159 49.984C853.055 48.16 851.543 46.792 849.623 45.88C847.751 44.92 845.663 44.44 843.359 44.44C840.047 44.44 837.215 45.496 834.863 47.608C832.559 49.72 831.239 52.648 830.903 56.392H855.815ZM877.784 25.72V79H871.232V25.72H877.784Z" fill="#F06FA4"/>
<g clip-path="url(#clip0_161_370)">
<path d="M341.813 646.111C346.481 636.027 351.146 625.794 353.172 614.869C355.199 603.943 354.348 592.086 348.545 582.609C342.743 573.133 331.317 566.707 320.414 568.849C311.459 570.609 304.268 577.662 300.057 585.759C295.847 593.856 294.158 602.989 292.52 611.968C291.991 601.767 291.43 591.403 288.042 581.768C284.654 572.132 277.982 563.153 268.473 559.425C258.964 555.696 246.594 558.628 241.582 567.528C234.521 580.066 243.884 597.653 235.765 609.534C234.372 597.617 221.91 588.201 210.066 590.118C198.222 592.034 189.365 604.899 191.801 616.647C193.251 623.638 198.021 629.584 203.723 633.879C209.425 638.175 216.057 643.154 222.618 645.969L341.813 646.111Z" fill="#F2F2F2"/>
<path d="M198.02 598.537C207.428 601.826 216.923 605.152 225.512 610.293C233.21 614.901 240.065 621.105 244.395 629.05C246.767 633.312 248.175 638.043 248.52 642.908C248.583 643.926 250.175 643.933 250.112 642.908C249.555 633.847 245.14 625.555 239.025 618.998C232.321 611.808 223.633 606.897 214.664 603.087C209.346 600.828 203.895 598.908 198.443 597.003C197.474 596.664 197.058 598.201 198.02 598.537H198.02Z" fill="white"/>
<path d="M252.287 561.005C258.068 570.634 262.696 580.91 266.078 591.62C269.467 602.327 271.602 613.39 272.439 624.589C272.903 630.857 272.954 637.15 272.591 643.425C272.532 644.449 274.124 644.445 274.183 643.425C274.825 632.111 274.14 620.76 272.142 609.605C270.148 598.451 266.87 587.565 262.373 577.165C259.849 571.323 256.939 565.656 253.662 560.201C253.551 560.027 253.378 559.902 253.177 559.853C252.976 559.804 252.765 559.835 252.586 559.939C252.408 560.043 252.277 560.213 252.222 560.411C252.166 560.61 252.189 560.823 252.287 561.005V561.005Z" fill="white"/>
<path d="M330.188 570.147C322.012 588.517 316.258 607.872 313.071 627.725C312.177 633.302 311.484 638.906 310.994 644.537C310.905 645.557 312.497 645.551 312.585 644.537C314.318 624.728 318.6 605.226 325.323 586.512C327.212 581.251 329.292 576.063 331.562 570.95C331.974 570.022 330.603 569.212 330.188 570.147V570.147Z" fill="white"/>
<path d="M612.474 667.791L612.346 657.91L565.761 658.512L565.889 668.394L612.474 667.791Z" fill="#E6E6E6"/>
<path d="M629.026 669.996L622.374 669.977L618.261 662.64L622.706 655.327L628.888 655.345C627.34 653.376 625.214 651.941 622.809 651.24C620.404 650.54 617.841 650.61 615.477 651.44C613.114 652.27 611.07 653.819 609.632 655.87C608.193 657.92 607.432 660.37 607.456 662.874C607.48 665.379 608.287 667.814 609.764 669.836C611.241 671.859 613.314 673.369 615.693 674.155C618.071 674.94 620.636 674.961 623.027 674.215C625.418 673.47 627.516 671.994 629.026 669.996V669.996Z" fill="#E6E6E6"/>
<path d="M549.208 669.996L555.861 669.977L559.973 662.64L555.528 655.327L549.347 655.345C550.895 653.376 553.021 651.941 555.426 651.24C557.83 650.54 560.394 650.61 562.757 651.44C565.121 652.27 567.165 653.819 568.603 655.87C570.042 657.92 570.802 660.37 570.779 662.874C570.755 665.379 569.948 667.814 568.471 669.836C566.994 671.859 564.921 673.369 562.542 674.155C560.164 674.94 557.599 674.961 555.208 674.215C552.817 673.47 550.719 671.994 549.208 669.996V669.996Z" fill="#E6E6E6"/>
<path d="M819 646.969H131C130.735 646.969 130.48 646.864 130.293 646.676C130.105 646.489 130 646.234 130 645.969C130 645.704 130.105 645.45 130.293 645.262C130.48 645.075 130.735 644.969 131 644.969H819C819.265 644.969 819.52 645.075 819.707 645.262C819.895 645.45 820 645.704 820 645.969C820 646.234 819.895 646.489 819.707 646.676C819.52 646.864 819.265 646.969 819 646.969Z" fill="#3F3D56"/>
<path d="M670.486 456.969C688.712 456.969 703.486 442.195 703.486 423.969C703.486 405.744 688.712 390.969 670.486 390.969C652.261 390.969 637.486 405.744 637.486 423.969C637.486 442.195 652.261 456.969 670.486 456.969Z" fill="#2F2E41"/>
<path d="M683.859 609.226L686.401 621.219L733.871 617.124L730.12 599.423L683.859 609.226Z" fill="#FFB8B8"/>
<path d="M680.166 646.709L672.178 609.016L686.741 605.93L691.643 629.06C692.461 632.922 691.712 636.952 689.56 640.262C687.407 643.572 684.028 645.891 680.166 646.709L680.166 646.709Z" fill="#2F2E41"/>
<path d="M654.12 608.586L648.777 619.621L603.673 604.264L611.559 587.979L654.12 608.586Z" fill="#FFB8B8"/>
<path d="M641.808 625.976L652.112 604.695L665.511 611.182L648.72 645.862C646.96 645.01 645.386 643.82 644.086 642.359C642.786 640.899 641.787 639.197 641.145 637.35C640.504 635.504 640.232 633.549 640.346 631.597C640.459 629.645 640.956 627.735 641.808 625.976V625.976Z" fill="#2F2E41"/>
<path d="M565.259 586.793C566.803 587.081 568.392 587.026 569.912 586.633C571.433 586.241 572.849 585.519 574.06 584.52C575.272 583.521 576.25 582.268 576.925 580.85C577.6 579.432 577.956 577.884 577.968 576.313L652.342 507.742L633.872 493.437L566.535 565.38C563.895 565.535 561.404 566.653 559.533 568.522C557.663 570.391 556.543 572.881 556.386 575.52C556.229 578.16 557.045 580.765 558.681 582.843C560.316 584.92 562.657 586.326 565.259 586.793H565.259Z" fill="#FFB8B8"/>
<path d="M666.344 458.459C679.909 458.459 690.906 447.463 690.906 433.898C690.906 420.334 679.909 409.337 666.344 409.337C652.78 409.337 641.783 420.334 641.783 433.898C641.783 447.463 652.78 458.459 666.344 458.459Z" fill="#FFB8B8"/>
<path d="M688.386 578.273C671.158 578.273 650.408 574.644 637.608 559.796L637.319 559.461L637.616 559.133C637.713 559.026 647.13 548.264 637.727 529.072L624.799 533.05L611.929 516.061L619.058 494.672L648.236 471.168C652.417 467.819 657.506 465.802 662.846 465.379C672.511 464.444 681.925 461.763 690.631 457.466C694.615 455.53 699.003 454.571 703.431 454.667L704.005 454.683C705.351 454.721 706.676 455.032 707.899 455.598C709.122 456.163 710.217 456.971 711.119 457.972C712.02 458.973 712.709 460.147 713.143 461.422C713.578 462.697 713.748 464.048 713.645 465.391C711.667 491.021 708.173 552.934 718.437 574.252L718.702 574.803L718.11 574.953C708.354 577.148 698.386 578.261 688.386 578.273V578.273Z" fill="#F06FA4"/>
<path d="M640.986 559.469C640.986 559.469 575.986 553.469 568.986 572.469C561.986 591.469 569.986 600.469 581.986 604.469C593.986 608.469 622.986 613.469 622.986 613.469L635.986 597.469L669.986 599.469C669.986 599.469 707.871 621.443 718.346 644.943C720.593 650.029 724.177 654.411 728.716 657.622C733.255 660.834 738.58 662.755 744.123 663.182C752.521 663.766 759.986 660.594 759.986 647.469C759.986 617.469 717.986 574.469 717.986 574.469L640.986 559.469Z" fill="#2F2E41"/>
<path d="M591.486 588.969C591.486 588.969 608.486 583.969 635.486 596.969Z" fill="#2F2E41"/>
<path d="M641.843 418.235C651.435 424.09 662.248 427.653 673.442 428.647L670.111 424.656C672.536 425.552 675.088 426.059 677.672 426.157C678.966 426.195 680.25 425.928 681.422 425.38C682.595 424.831 683.622 424.015 684.422 422.998C685.075 421.942 685.463 420.743 685.553 419.504C685.643 418.265 685.432 417.023 684.937 415.883C683.922 413.61 682.342 411.634 680.348 410.144C676.813 407.348 672.641 405.47 668.204 404.677C663.767 403.884 659.202 404.201 654.917 405.6C651.978 406.478 649.346 408.167 647.322 410.472C646.327 411.633 645.636 413.023 645.311 414.517C644.986 416.011 645.037 417.563 645.459 419.033" fill="#2F2E41"/>
<path d="M670.309 398.604C674.673 388.471 681.206 379.418 689.446 372.083C694.738 367.38 700.918 363.339 707.892 362.12C714.866 360.9 722.725 362.99 727.003 368.631C730.501 373.244 731.155 379.424 730.77 385.2C730.384 390.976 729.093 396.696 729.217 402.484C729.343 408.39 730.942 414.17 733.869 419.301C736.796 424.432 740.958 428.75 745.977 431.865C750.996 434.979 756.714 436.79 762.61 437.134C768.507 437.479 774.397 436.345 779.744 433.835C773.722 437.164 769.03 442.433 763.439 446.443C757.848 450.454 750.476 453.203 744.127 450.553C737.409 447.75 734.327 440.134 731.921 433.264L721.189 402.624C719.365 397.416 717.45 392.053 713.727 387.979C710.004 383.905 703.962 381.422 698.838 383.47C694.954 385.022 692.425 388.728 690.207 392.274C687.99 395.82 685.65 399.594 681.904 401.453C678.157 403.313 672.605 402.168 671.381 398.169" fill="#2F2E41"/>
<path d="M669.625 547.192L662.729 554.27L696.095 586.784L702.992 579.706L669.625 547.192Z" fill="#E6E6E6"/>
<path d="M696.51 580.289C695.146 581.689 694.228 583.462 693.871 585.384C693.515 587.305 693.736 589.29 694.507 591.086C695.279 592.882 696.565 594.409 698.204 595.473C699.843 596.538 701.761 597.093 703.716 597.068C705.67 597.042 707.573 596.438 709.184 595.331C710.795 594.224 712.041 592.665 712.766 590.849C713.49 589.034 713.66 587.045 713.254 585.133C712.848 583.221 711.884 581.472 710.485 580.108C708.607 578.279 706.081 577.271 703.46 577.305C700.839 577.338 698.339 578.412 696.51 580.289V580.289ZM706.621 590.142C706.036 590.742 705.287 591.155 704.468 591.329C703.648 591.503 702.796 591.43 702.018 591.12C701.24 590.809 700.571 590.275 700.097 589.584C699.623 588.894 699.364 588.078 699.353 587.241C699.342 586.403 699.58 585.581 700.036 584.879C700.492 584.176 701.147 583.625 701.916 583.294C702.686 582.964 703.537 582.869 704.36 583.022C705.184 583.175 705.944 583.568 706.544 584.153C707.348 584.937 707.808 586.008 707.823 587.131C707.837 588.254 707.405 589.337 706.621 590.142Z" fill="#E6E6E6"/>
<path d="M659.479 533.928L664.17 538.646L661.89 546.742L653.576 548.77L649.218 544.386C648.92 546.873 649.408 549.391 650.613 551.587C651.819 553.783 653.681 555.546 655.939 556.63C658.197 557.714 660.738 558.064 663.205 557.631C665.672 557.198 667.942 556.004 669.696 554.217C671.451 552.429 672.601 550.137 672.987 547.662C673.373 545.187 672.975 542.653 671.848 540.416C670.722 538.179 668.923 536.35 666.705 535.187C664.487 534.024 661.96 533.583 659.479 533.928V533.928Z" fill="#E6E6E6"/>
<path d="M678.736 578.359C678.312 578.359 677.889 578.335 677.468 578.289C674.999 578.002 672.7 576.89 670.943 575.133C669.185 573.376 668.074 571.076 667.788 568.607C667.612 567.067 667.764 565.508 668.233 564.03C668.702 562.553 669.478 561.191 670.51 560.035C671.542 558.878 672.807 557.953 674.222 557.319C675.636 556.685 677.169 556.358 678.719 556.357C679.209 556.36 679.699 556.397 680.185 556.467L713.763 520.722L710.258 509.037L727.863 501.146L732.797 513.206C734.45 517.291 734.742 521.8 733.629 526.065C732.517 530.329 730.059 534.121 726.62 536.878L689.659 566.279C689.698 566.637 689.718 566.997 689.719 567.357C689.718 568.904 689.391 570.434 688.76 571.846C688.128 573.258 687.207 574.522 686.055 575.554C684.049 577.367 681.44 578.367 678.736 578.359Z" fill="#FFB8B8"/>
<path d="M704.986 459.469C706.151 458.952 707.407 458.675 708.681 458.655C709.955 458.636 711.22 458.874 712.399 459.356C713.579 459.837 714.649 460.552 715.545 461.458C716.441 462.364 717.145 463.441 717.614 464.625L734.986 508.469L707.986 526.469L704.986 459.469Z" fill="#F06FA4"/>
<path d="M578.486 469.707V251.262C578.477 244.565 575.812 238.145 571.077 233.41C566.341 228.674 559.921 226.009 553.224 226H209.954C203.257 226.009 196.837 228.674 192.101 233.41C187.366 238.145 184.701 244.565 184.692 251.262V469.707C184.701 476.404 187.366 482.824 192.101 487.56C196.837 492.295 203.257 494.96 209.954 494.969H553.224C559.921 494.96 566.341 492.295 571.077 487.56C575.812 482.824 578.477 476.404 578.486 469.707ZM209.954 491.997C204.044 491.99 198.379 489.639 194.2 485.461C190.022 481.282 187.671 475.616 187.664 469.707V251.262C187.671 245.353 190.022 239.687 194.2 235.509C198.379 231.33 204.044 228.979 209.954 228.972H553.224C559.134 228.979 564.799 231.33 568.978 235.509C573.156 239.687 575.507 245.353 575.514 251.262V469.707C575.507 475.616 573.156 481.282 568.978 485.461C564.799 489.639 559.134 491.99 553.224 491.997H209.954Z" fill="#3F3D56"/>
<path d="M575.514 265.303H187.664C187.27 265.303 186.892 265.146 186.613 264.868C186.334 264.589 186.178 264.211 186.178 263.817C186.178 263.423 186.334 263.045 186.613 262.766C186.892 262.488 187.27 262.331 187.664 262.331H575.514C575.908 262.331 576.286 262.488 576.565 262.766C576.844 263.045 577 263.423 577 263.817C577 264.211 576.844 264.589 576.565 264.868C576.286 265.146 575.908 265.303 575.514 265.303Z" fill="#3F3D56"/>
<path d="M212.926 254.234C217.029 254.234 220.356 250.908 220.356 246.804C220.356 242.701 217.029 239.374 212.926 239.374C208.822 239.374 205.496 242.701 205.496 246.804C205.496 250.908 208.822 254.234 212.926 254.234Z" fill="#6C63FF"/>
<path d="M238.188 254.234C242.292 254.234 245.618 250.908 245.618 246.804C245.618 242.701 242.292 239.374 238.188 239.374C234.085 239.374 230.758 242.701 230.758 246.804C230.758 250.908 234.085 254.234 238.188 254.234Z" fill="#6C63FF"/>
<path d="M263.451 254.234C267.554 254.234 270.881 250.908 270.881 246.804C270.881 242.701 267.554 239.374 263.451 239.374C259.347 239.374 256.021 242.701 256.021 246.804C256.021 250.908 259.347 254.234 263.451 254.234Z" fill="#6C63FF"/>
<path d="M318.979 425.232C318.847 425.232 318.717 425.206 318.596 425.156C318.475 425.105 318.364 425.032 318.271 424.939C318.179 424.846 318.105 424.736 318.055 424.614C318.004 424.493 317.979 424.363 317.979 424.232C317.979 413.805 313.408 407.989 306.033 401.985C305.931 401.902 305.846 401.8 305.783 401.684C305.721 401.568 305.682 401.442 305.668 401.311C305.654 401.18 305.667 401.048 305.704 400.922C305.742 400.795 305.804 400.678 305.887 400.576C305.97 400.474 306.073 400.389 306.188 400.327C306.304 400.265 306.431 400.226 306.562 400.213C306.693 400.199 306.825 400.212 306.951 400.25C307.077 400.288 307.194 400.35 307.296 400.434C315.126 406.809 319.979 413.014 319.979 424.232C319.979 424.363 319.953 424.493 319.903 424.614C319.852 424.736 319.779 424.846 319.686 424.939C319.593 425.032 319.483 425.105 319.361 425.156C319.24 425.206 319.11 425.232 318.979 425.232Z" fill="black"/>
<path d="M233.317 425.232C233.185 425.232 233.055 425.206 232.934 425.156C232.813 425.105 232.702 425.032 232.609 424.939C232.517 424.846 232.443 424.736 232.393 424.614C232.342 424.493 232.317 424.363 232.317 424.232C232.317 413.014 237.169 406.809 244.999 400.434C245.101 400.35 245.218 400.288 245.344 400.25C245.47 400.212 245.602 400.199 245.733 400.213C245.864 400.226 245.991 400.265 246.107 400.327C246.223 400.389 246.325 400.474 246.408 400.576C246.491 400.678 246.553 400.795 246.591 400.922C246.629 401.048 246.641 401.18 246.627 401.311C246.614 401.442 246.574 401.568 246.512 401.684C246.449 401.8 246.364 401.902 246.262 401.985C238.887 407.989 234.317 413.806 234.317 424.232C234.317 424.363 234.291 424.493 234.241 424.614C234.19 424.736 234.117 424.846 234.024 424.939C233.931 425.032 233.821 425.105 233.699 425.156C233.578 425.206 233.448 425.232 233.317 425.232Z" fill="black"/>
<path d="M310.413 356.701C310.207 356.701 310.005 356.637 309.836 356.518C309.668 356.399 309.54 356.231 309.471 356.036C309.401 355.842 309.394 355.631 309.45 355.432C309.505 355.233 309.621 355.056 309.781 354.926C317.362 348.754 317.979 339.987 317.979 330.002C317.979 329.737 318.084 329.483 318.272 329.295C318.459 329.108 318.713 329.002 318.979 329.002C319.244 329.002 319.498 329.108 319.686 329.295C319.873 329.483 319.979 329.737 319.979 330.002C319.979 340.507 319.306 349.75 311.044 356.477C310.866 356.622 310.643 356.702 310.413 356.701V356.701Z" fill="black"/>
<path d="M241.883 356.166C241.653 356.166 241.43 356.087 241.252 355.941C232.989 349.214 232.317 340.214 232.317 330.002C232.317 329.737 232.422 329.483 232.61 329.295C232.797 329.108 233.051 329.002 233.317 329.002C233.582 329.002 233.836 329.108 234.024 329.295C234.211 329.483 234.317 329.737 234.317 330.002C234.317 340.039 234.92 348.208 242.514 354.391C242.675 354.521 242.79 354.698 242.846 354.897C242.902 355.096 242.894 355.307 242.825 355.501C242.756 355.696 242.628 355.864 242.459 355.983C242.291 356.102 242.089 356.166 241.883 356.166V356.166Z" fill="black"/>
<path d="M331.828 378.152H310.413C310.148 378.152 309.893 378.047 309.706 377.859C309.518 377.671 309.413 377.417 309.413 377.152C309.413 376.887 309.518 376.632 309.706 376.445C309.893 376.257 310.148 376.152 310.413 376.152H331.828C332.094 376.152 332.348 376.257 332.535 376.445C332.723 376.632 332.828 376.887 332.828 377.152C332.828 377.417 332.723 377.671 332.535 377.859C332.348 378.047 332.094 378.152 331.828 378.152Z" fill="black"/>
<path d="M241.883 378.152H220.468C220.202 378.152 219.948 378.047 219.76 377.859C219.573 377.671 219.468 377.417 219.468 377.152C219.468 376.887 219.573 376.632 219.76 376.445C219.948 376.257 220.202 376.152 220.468 376.152H241.883C242.148 376.152 242.403 376.257 242.59 376.445C242.778 376.632 242.883 376.887 242.883 377.152C242.883 377.417 242.778 377.671 242.59 377.859C242.403 378.047 242.148 378.152 241.883 378.152Z" fill="black"/>
<path d="M276.148 420.948C276.016 420.948 275.886 420.922 275.765 420.872C275.644 420.822 275.533 420.748 275.441 420.655C275.348 420.563 275.274 420.452 275.224 420.331C275.174 420.21 275.148 420.08 275.148 419.948V351.418C275.148 351.153 275.253 350.899 275.441 350.711C275.628 350.524 275.882 350.418 276.148 350.418C276.413 350.418 276.667 350.524 276.855 350.711C277.042 350.899 277.148 351.153 277.148 351.418V419.948C277.148 420.08 277.122 420.21 277.072 420.331C277.021 420.452 276.948 420.563 276.855 420.655C276.762 420.748 276.652 420.822 276.53 420.872C276.409 420.922 276.279 420.948 276.148 420.948V420.948Z" fill="black"/>
<path d="M276.148 420.948C266.798 420.937 257.835 417.219 251.224 410.607C244.612 403.996 240.894 395.033 240.883 385.683V359.966C240.883 343.498 254.396 333.267 276.148 333.267C298.889 333.267 311.413 342.749 311.413 359.966V385.683C311.402 395.033 307.683 403.996 301.072 410.608C294.461 417.219 285.497 420.938 276.148 420.948V420.948ZM276.148 335.267C260.067 335.267 242.883 341.755 242.883 359.966V385.683C242.881 390.053 243.739 394.381 245.41 398.419C247.081 402.457 249.53 406.126 252.62 409.217C255.709 412.308 259.377 414.76 263.414 416.432C267.451 418.105 271.778 418.966 276.148 418.966C280.518 418.966 284.845 418.105 288.882 416.432C292.919 414.76 296.587 412.308 299.676 409.217C302.765 406.126 305.215 402.457 306.886 398.419C308.557 394.381 309.415 390.053 309.413 385.683V359.966C309.413 338.476 288.571 335.267 276.148 335.267V335.267Z" fill="black"/>
<path d="M255.651 339.441C255.451 339.441 255.255 339.381 255.09 339.269C254.924 339.156 254.796 338.997 254.722 338.811C254.144 337.365 253.81 335.834 253.733 334.279C253.751 328.351 256.11 322.669 260.297 318.472C264.484 314.275 270.16 311.902 276.089 311.87H276.204C282.125 311.898 287.795 314.263 291.982 318.449C296.169 322.636 298.534 328.306 298.563 334.227C298.511 335.673 298.203 337.099 297.653 338.438C297.551 338.681 297.356 338.875 297.112 338.975C296.868 339.076 296.595 339.076 296.35 338.976C296.106 338.875 295.912 338.683 295.809 338.439C295.707 338.196 295.705 337.922 295.803 337.677C296.26 336.569 296.517 335.388 296.564 334.19C296.529 328.804 294.371 323.65 290.558 319.845C286.746 316.041 281.587 313.894 276.201 313.87H276.091C270.7 313.897 265.536 316.051 261.724 319.864C257.911 323.677 255.758 328.84 255.732 334.232C255.803 335.549 256.089 336.845 256.579 338.07C256.639 338.222 256.662 338.386 256.644 338.548C256.626 338.71 256.569 338.866 256.478 339.001C256.386 339.136 256.263 339.247 256.119 339.324C255.975 339.4 255.814 339.441 255.651 339.441H255.651Z" fill="black"/>
<path d="M459.71 363.502H447.71C445.854 363.502 444.073 362.765 442.761 361.452C441.448 360.139 440.71 358.359 440.71 356.502C440.71 354.646 441.448 352.865 442.761 351.553C444.073 350.24 445.854 349.502 447.71 349.502H459.71C461.567 349.502 463.347 350.24 464.66 351.553C465.973 352.865 466.71 354.646 466.71 356.502C466.71 358.359 465.973 360.139 464.66 361.452C463.347 362.765 461.567 363.502 459.71 363.502V363.502Z" fill="#CCCCCC"/>
<path d="M497.71 363.502H485.71C483.854 363.502 482.073 362.765 480.761 361.452C479.448 360.139 478.71 358.359 478.71 356.502C478.71 354.646 479.448 352.865 480.761 351.553C482.073 350.24 483.854 349.502 485.71 349.502H497.71C499.567 349.502 501.347 350.24 502.66 351.553C503.973 352.865 504.71 354.646 504.71 356.502C504.71 358.359 503.973 360.139 502.66 361.452C501.347 362.765 499.567 363.502 497.71 363.502V363.502Z" fill="#CCCCCC"/>
<path d="M535.71 363.502H523.71C521.854 363.502 520.073 362.765 518.761 361.452C517.448 360.139 516.71 358.359 516.71 356.502C516.71 354.646 517.448 352.865 518.761 351.553C520.073 350.24 521.854 349.502 523.71 349.502H535.71C537.567 349.502 539.347 350.24 540.66 351.553C541.973 352.865 542.71 354.646 542.71 356.502C542.71 358.359 541.973 360.139 540.66 361.452C539.347 362.765 537.567 363.502 535.71 363.502V363.502Z" fill="#CCCCCC"/>
<path d="M460.71 334.502H404.71C402.854 334.502 401.073 333.765 399.761 332.452C398.448 331.139 397.71 329.359 397.71 327.502C397.71 325.646 398.448 323.865 399.761 322.553C401.073 321.24 402.854 320.502 404.71 320.502H460.71C462.567 320.502 464.347 321.24 465.66 322.553C466.973 323.865 467.71 325.646 467.71 327.502C467.71 329.359 466.973 331.139 465.66 332.452C464.347 333.765 462.567 334.502 460.71 334.502Z" fill="#CCCCCC"/>
<path d="M421.71 362.502H365.71C363.854 362.502 362.073 361.765 360.761 360.452C359.448 359.139 358.71 357.359 358.71 355.502C358.71 353.646 359.448 351.865 360.761 350.553C362.073 349.24 363.854 348.502 365.71 348.502H421.71C423.567 348.502 425.347 349.24 426.66 350.553C427.973 351.865 428.71 353.646 428.71 355.502C428.71 357.359 427.973 359.139 426.66 360.452C425.347 361.765 423.567 362.502 421.71 362.502Z" fill="#CCCCCC"/>
<path d="M531.71 334.502H488.71C486.854 334.502 485.073 333.765 483.761 332.452C482.448 331.139 481.71 329.359 481.71 327.502C481.71 325.646 482.448 323.865 483.761 322.553C485.073 321.24 486.854 320.502 488.71 320.502H531.71C533.567 320.502 535.347 321.24 536.66 322.553C537.973 323.865 538.71 325.646 538.71 327.502C538.71 329.359 537.973 331.139 536.66 332.452C535.347 333.765 533.567 334.502 531.71 334.502Z" fill="#CCCCCC"/>
<path d="M377.71 393.002H365.71C363.854 393.002 362.073 392.265 360.761 390.952C359.448 389.639 358.71 387.859 358.71 386.002C358.71 384.146 359.448 382.365 360.761 381.053C362.073 379.74 363.854 379.002 365.71 379.002H377.71C379.567 379.002 381.347 379.74 382.66 381.053C383.973 382.365 384.71 384.146 384.71 386.002C384.71 387.859 383.973 389.639 382.66 390.952C381.347 392.265 379.567 393.002 377.71 393.002V393.002Z" fill="#CCCCCC"/>
<path d="M460.71 393.502H404.71C402.854 393.502 401.073 392.765 399.761 391.452C398.448 390.139 397.71 388.359 397.71 386.502C397.71 384.646 398.448 382.865 399.761 381.553C401.073 380.24 402.854 379.502 404.71 379.502H460.71C462.567 379.502 464.347 380.24 465.66 381.553C466.973 382.865 467.71 384.646 467.71 386.502C467.71 388.359 466.973 390.139 465.66 391.452C464.347 392.765 462.567 393.502 460.71 393.502V393.502Z" fill="#CCCCCC"/>
<path d="M531.71 393.502H488.71C486.854 393.502 485.073 392.765 483.761 391.452C482.448 390.139 481.71 388.359 481.71 386.502C481.71 384.646 482.448 382.865 483.761 381.553C485.073 380.24 486.854 379.502 488.71 379.502H531.71C533.567 379.502 535.347 380.24 536.66 381.553C537.973 382.865 538.71 384.646 538.71 386.502C538.71 388.359 537.973 390.139 536.66 391.452C535.347 392.765 533.567 393.502 531.71 393.502V393.502Z" fill="#CCCCCC"/>
<path d="M512.71 417.002C512.713 415.147 513.451 413.367 514.763 412.055C516.075 410.743 517.855 410.005 519.71 410.002H531.71C533.567 410.002 535.347 410.74 536.66 412.053C537.973 413.365 538.71 415.146 538.71 417.002C538.71 418.859 537.973 420.639 536.66 421.952C535.347 423.265 533.567 424.002 531.71 424.002H519.71C517.855 424 516.075 423.262 514.763 421.95C513.451 420.638 512.713 418.858 512.71 417.002V417.002Z" fill="#CCCCCC"/>
<path d="M429.71 417.502C429.713 415.647 430.451 413.867 431.763 412.555C433.075 411.243 434.855 410.505 436.71 410.502H492.71C494.567 410.502 496.347 411.24 497.66 412.553C498.973 413.865 499.71 415.646 499.71 417.502C499.71 419.359 498.973 421.139 497.66 422.452C496.347 423.765 494.567 424.502 492.71 424.502H436.71C434.855 424.5 433.075 423.762 431.763 422.45C430.451 421.138 429.713 419.358 429.71 417.502Z" fill="#CCCCCC"/>
<path d="M358.71 417.502C358.713 415.647 359.451 413.867 360.763 412.555C362.075 411.243 363.855 410.505 365.71 410.502H408.71C410.567 410.502 412.347 411.24 413.66 412.553C414.973 413.865 415.71 415.646 415.71 417.502C415.71 419.359 414.973 421.139 413.66 422.452C412.347 423.765 410.567 424.502 408.71 424.502H365.71C363.855 424.5 362.075 423.762 360.763 422.45C359.451 421.138 358.713 419.358 358.71 417.502Z" fill="#CCCCCC"/>
</g>
<defs>
<clipPath id="clip0_161_370">
<rect width="690" height="448.759" fill="white" transform="translate(130 226)"/>
</clipPath>
</defs>
</svg>
