<svg width="715" height="500" viewBox="0 0 715 500" fill="none" xmlns="http://www.w3.org/2000/svg">
<g clip-path="url(#clip0_147_316)">
<path d="M702.196 65.0655C680.583 -16.3413 610.306 2.42847 522.651 0.0714903C476.31 -1.17458 427.546 13.5475 392.043 65.0655C328.576 157.159 395.943 220.799 442.909 251.039C465.599 265.679 486.045 283.281 503.653 303.337C535.377 339.397 596.407 384.208 669.09 313.997C721.772 263.108 716.592 119.29 702.196 65.0655Z" fill="#F06FA4"/>
<path d="M207.119 204.318C206.537 203.492 205.964 202.644 205.417 201.797L206.301 201.273C206.84 202.109 207.405 202.946 207.979 203.761L207.119 204.318Z" fill="#3F3D56"/>
<path d="M202.287 196.466C201.323 194.656 200.428 192.786 199.626 190.907L200.587 190.53C201.379 192.383 202.262 194.229 203.212 196.015L202.287 196.466ZM197.456 185.156C196.819 183.219 196.259 181.233 195.791 179.252L196.804 179.033C197.266 180.987 197.818 182.946 198.446 184.857L197.456 185.156ZM194.643 173.237C194.349 171.229 194.138 169.183 194.016 167.152L195.053 167.095C195.173 169.098 195.381 171.118 195.671 173.098L194.643 173.237ZM194.946 161.062L193.908 161.038C193.958 159.005 194.096 156.953 194.317 154.938L195.35 155.043C195.131 157.031 194.995 159.056 194.946 161.062ZM196.268 149.076L195.248 148.89C195.643 146.896 196.131 144.893 196.697 142.936L197.698 143.202C197.139 145.132 196.658 147.108 196.268 149.076ZM199.631 137.462L198.657 137.118C199.391 135.212 200.219 133.312 201.116 131.471L202.057 131.891C201.172 133.708 200.356 135.582 199.631 137.462ZM341.841 134.387C341.029 132.543 340.126 130.708 339.156 128.931L340.077 128.47C341.06 130.271 341.975 132.132 342.798 134.001L341.841 134.387ZM204.955 126.532L204.053 126.039C205.105 124.277 206.247 122.534 207.448 120.858L208.304 121.421C207.119 123.074 205.992 124.794 204.955 126.532ZM336.01 123.706C334.892 122.014 333.686 120.345 332.426 118.746L333.255 118.146C334.532 119.767 335.754 121.459 336.887 123.173L336.01 123.706ZM212.08 116.591L211.275 115.963C212.614 114.389 214.038 112.848 215.507 111.385L216.255 112.074C214.806 113.518 213.401 115.038 212.08 116.591ZM328.429 114.084C327.036 112.588 325.562 111.13 324.046 109.75L324.762 109.029C326.298 110.428 327.792 111.906 329.204 113.421L328.429 114.084ZM220.803 107.9L220.116 107.154C221.704 105.811 223.371 104.514 225.07 103.299L225.691 104.096C224.015 105.295 222.37 106.574 220.803 107.9ZM319.308 105.775C317.68 104.517 315.976 103.309 314.246 102.184L314.829 101.361C316.583 102.501 318.309 103.725 319.96 105L319.308 105.775ZM230.887 100.69L230.336 99.8473C232.134 98.7701 234 97.7523 235.881 96.8223L236.357 97.7062C234.501 98.6237 232.661 99.6278 230.887 100.69ZM308.893 99.0042C307.069 98.018 305.181 97.094 303.284 96.2579L303.718 95.354C305.641 96.2018 307.554 97.1384 309.403 98.1377L308.893 99.0042ZM242.065 95.1649L241.666 94.2465C243.623 93.4679 245.637 92.7586 247.653 92.1384L247.97 93.0855C245.982 93.6972 243.995 94.3968 242.065 95.1649ZM297.457 93.965C295.492 93.2817 293.471 92.6687 291.452 92.1435L291.724 91.1838C293.771 91.7161 295.819 92.3373 297.811 93.0301L297.457 93.965ZM254.04 91.481L253.806 90.5121C255.868 90.0541 257.978 89.6731 260.077 89.3792L260.227 90.3635C258.156 90.6534 256.075 91.0294 254.04 91.481V91.481ZM285.309 90.8054C283.257 90.4431 281.159 90.158 279.074 89.9584L279.178 88.9686C281.291 89.1711 283.417 89.4599 285.498 89.8273L285.309 90.8054ZM266.49 89.7382L266.424 88.7454C268.536 88.6177 270.69 88.5723 272.806 88.609L272.787 89.6036C270.697 89.567 268.574 89.6124 266.49 89.7382Z" fill="#9F9FA9"/>
<path d="M344.968 142.946C344.69 141.999 344.388 141.045 344.07 140.11L345.057 139.802C345.38 140.75 345.686 141.717 345.968 142.676L344.968 142.946Z" fill="#3F3D56"/>
<path d="M338.637 87.2442H337.598C337.598 86.2488 337.617 85.2388 337.653 84.2427L338.691 84.2772C338.655 85.2621 338.637 86.2602 338.637 87.2442Z" fill="#3F3D56"/>
<path d="M339.131 78.296L338.098 78.1906C338.321 76.1874 338.622 74.1679 338.993 72.1883L340.015 72.3641C339.648 74.3204 339.351 76.3163 339.131 78.296ZM341.342 66.5085L340.336 66.2628C340.855 64.3106 341.456 62.3533 342.121 60.4451L343.106 60.7598C342.449 62.6457 341.855 64.5797 341.342 66.5085ZM506.946 56.0145C506.169 54.1687 505.313 52.327 504.4 50.5411L505.333 50.104C506.257 51.9113 507.123 53.7748 507.909 55.643L506.946 56.0145ZM345.301 55.1427L344.342 54.7605C345.149 52.9018 346.038 51.0463 346.985 49.2454L347.912 49.6927C346.977 51.4724 346.098 53.3059 345.301 55.1427ZM501.451 45.2565C500.407 43.5377 499.284 41.8322 498.113 40.1877L498.971 39.6272C500.156 41.2914 501.292 43.017 502.348 44.7562L501.451 45.2565ZM350.926 44.4374L350.035 43.9274C351.111 42.2004 352.268 40.4864 353.474 38.8334L354.325 39.4031C353.133 41.0367 351.99 42.7305 350.926 44.4374H350.926ZM494.406 35.3601C493.115 33.7989 491.75 32.2639 490.349 30.7976L491.114 30.1259C492.532 31.6097 493.914 33.1626 495.22 34.7423L494.406 35.3601ZM358.091 34.615L357.284 33.9885C358.609 32.4237 360.008 30.8855 361.444 29.4168L362.202 30.0968C360.783 31.5485 359.4 33.0686 358.091 34.615ZM485.962 26.5234C484.453 25.1543 482.874 23.8206 481.269 22.559L481.927 21.7902C483.552 23.0663 485.149 24.416 486.676 25.8012L485.962 26.5234ZM366.639 25.8711L365.933 25.1412C367.475 23.7737 369.088 22.4418 370.728 21.1826L371.378 21.9587C369.757 23.2033 368.163 24.5195 366.639 25.8711V25.8711ZM476.292 18.9252C474.596 17.7756 472.835 16.6707 471.058 15.641L471.595 14.7901C473.393 15.8319 475.175 16.95 476.892 18.1132L476.292 18.9252ZM376.395 18.3803L375.804 17.5619C377.533 16.4186 379.327 15.3207 381.137 14.2984L381.665 15.1551C379.876 16.1656 378.103 17.2506 376.395 18.3803V18.3803ZM465.591 12.7248C463.74 11.819 461.832 10.9671 459.919 10.1922L460.324 9.27624C462.259 10.0601 464.19 10.9224 466.064 11.8389L465.591 12.7248ZM387.162 12.3006L386.7 11.4098C388.581 10.5152 390.52 9.67475 392.463 8.912L392.857 9.83236C390.936 10.5861 389.02 11.4166 387.162 12.3005V12.3006ZM454.072 8.05792C452.108 7.41731 450.091 6.83693 448.079 6.33303L448.341 5.3709C450.378 5.88062 452.419 6.46805 454.407 7.11619L454.072 8.05792ZM398.721 7.7636L398.397 6.81847C400.393 6.19194 402.439 5.62686 404.48 5.13897L404.731 6.10402C402.715 6.58605 400.693 7.14434 398.721 7.76358L398.721 7.7636ZM441.973 5.02777C439.931 4.66471 437.849 4.36821 435.785 4.14626L435.901 3.1579C437.99 3.38253 440.096 3.68243 442.162 4.04962L441.973 5.02777ZM410.851 4.86409L410.673 3.88399C412.742 3.53892 414.851 3.26133 416.944 3.05858L417.048 4.04839C414.981 4.24848 412.895 4.52289 410.851 4.86408L410.851 4.86409ZM429.547 3.69021C427.468 3.60934 425.354 3.59866 423.29 3.65767L423.259 2.66349C425.347 2.60376 427.485 2.6142 429.59 2.69652L429.547 3.69021Z" fill="#9F9FA9"/>
<path d="M509.983 64.5496C509.705 63.603 509.405 62.6474 509.092 61.7088L510.081 61.4058C510.398 62.3553 510.702 63.3222 510.983 64.28L509.983 64.5496Z" fill="#9F9FA9"/>
<path d="M206.512 216.663C216.064 216.663 223.807 216.107 223.807 215.421C223.807 214.735 216.064 214.178 206.512 214.178C196.96 214.178 189.216 214.735 189.216 215.421C189.216 216.107 196.96 216.663 206.512 216.663Z" fill="#383EA8"/>
<path d="M344.445 156.606C353.997 156.606 361.74 156.05 361.74 155.364C361.74 154.677 353.997 154.121 344.445 154.121C334.893 154.121 327.149 154.677 327.149 155.364C327.149 156.05 334.893 156.606 344.445 156.606Z" fill="#383EA8"/>
<path d="M514.807 94.0637C524.359 94.0637 532.103 93.5074 532.103 92.8212C532.103 92.1349 524.359 91.5786 514.807 91.5786C505.255 91.5786 497.512 92.1349 497.512 92.8212C497.512 93.5074 505.255 94.0637 514.807 94.0637Z" fill="#6C63FF"/>
<path d="M507.954 88.7425L455.946 138.561L456.681 139.264L508.688 89.4458L507.954 88.7425Z" fill="#8282C1"/>
<path d="M440.868 144.926H353.525V145.92H440.868V144.926Z" fill="#8282C1"/>
<path d="M337.583 151.707L288.732 198.501L289.466 199.205L338.318 152.41L337.583 151.707Z" fill="#9F9FA9"/>
<path d="M273.965 204.983H215.592V205.978H273.965V204.983Z" fill="#9F9FA9"/>
<path d="M199.724 211.279L141.718 266.842L142.453 267.546L200.458 211.982L199.724 211.279Z" fill="#9F9FA9"/>
<path d="M206.512 214.675C204.613 214.675 202.757 214.136 201.179 213.126C199.6 212.115 198.369 210.679 197.643 208.999C196.916 207.319 196.726 205.47 197.096 203.686C197.467 201.903 198.381 200.264 199.724 198.978C201.066 197.692 202.777 196.816 204.639 196.461C206.501 196.107 208.431 196.289 210.185 196.985C211.939 197.681 213.438 198.859 214.493 200.371C215.548 201.883 216.111 203.661 216.111 205.48C216.108 207.918 215.096 210.255 213.296 211.979C211.497 213.703 209.057 214.673 206.512 214.675ZM206.512 197.279C204.819 197.279 203.163 197.76 201.755 198.661C200.348 199.562 199.25 200.843 198.602 202.342C197.954 203.84 197.785 205.489 198.115 207.08C198.445 208.671 199.261 210.132 200.458 211.279C201.655 212.426 203.181 213.207 204.841 213.523C206.502 213.84 208.223 213.677 209.788 213.056C211.352 212.436 212.689 211.385 213.63 210.036C214.571 208.687 215.073 207.102 215.073 205.48C215.07 203.306 214.167 201.221 212.562 199.684C210.958 198.147 208.782 197.282 206.512 197.279Z" fill="#9F9FA9"/>
<path d="M283.045 214.675C281.146 214.675 279.29 214.136 277.712 213.126C276.133 212.115 274.903 210.679 274.176 208.999C273.45 207.319 273.26 205.47 273.63 203.686C274 201.902 274.915 200.264 276.257 198.978C277.6 197.692 279.31 196.816 281.172 196.461C283.034 196.107 284.965 196.289 286.719 196.985C288.473 197.681 289.972 198.859 291.027 200.371C292.082 201.884 292.645 203.661 292.645 205.48C292.642 207.918 291.63 210.255 289.83 211.979C288.03 213.703 285.59 214.673 283.045 214.675ZM283.045 197.279C281.352 197.279 279.697 197.76 278.289 198.661C276.881 199.563 275.784 200.843 275.136 202.342C274.488 203.84 274.318 205.489 274.648 207.08C274.979 208.671 275.794 210.132 276.991 211.279C278.189 212.426 279.714 213.207 281.375 213.523C283.036 213.84 284.757 213.677 286.321 213.056C287.886 212.436 289.223 211.385 290.163 210.036C291.104 208.687 291.606 207.102 291.606 205.48C291.604 203.306 290.701 201.221 289.096 199.684C287.491 198.147 285.315 197.282 283.045 197.279Z" fill="#9F9FA9"/>
<path d="M344.445 154.618C342.546 154.618 340.69 154.079 339.112 153.069C337.533 152.058 336.303 150.622 335.576 148.942C334.85 147.262 334.66 145.413 335.03 143.629C335.4 141.846 336.315 140.207 337.657 138.921C339 137.635 340.71 136.76 342.572 136.405C344.434 136.05 346.364 136.232 348.118 136.928C349.872 137.624 351.372 138.802 352.426 140.315C353.481 141.827 354.044 143.604 354.044 145.423C354.041 147.861 353.029 150.198 351.23 151.922C349.43 153.646 346.99 154.616 344.445 154.618ZM344.445 137.223C342.752 137.223 341.096 137.704 339.689 138.605C338.281 139.506 337.183 140.787 336.536 142.285C335.888 143.784 335.718 145.432 336.048 147.023C336.379 148.614 337.194 150.075 338.391 151.222C339.589 152.369 341.114 153.15 342.775 153.466C344.436 153.783 346.157 153.62 347.721 153C349.285 152.379 350.623 151.328 351.563 149.979C352.504 148.631 353.006 147.045 353.006 145.423C353.003 143.249 352.101 141.165 350.496 139.627C348.891 138.09 346.715 137.225 344.445 137.223V137.223Z" fill="#9F9FA9"/>
<path d="M449.948 154.618C448.05 154.618 446.194 154.079 444.615 153.069C443.037 152.058 441.806 150.622 441.08 148.942C440.353 147.262 440.163 145.413 440.533 143.629C440.904 141.846 441.818 140.207 443.161 138.921C444.503 137.635 446.213 136.76 448.076 136.405C449.938 136.05 451.868 136.232 453.622 136.928C455.376 137.624 456.875 138.802 457.93 140.315C458.985 141.827 459.548 143.604 459.548 145.423C459.545 147.861 458.533 150.198 456.733 151.922C454.933 153.646 452.493 154.616 449.948 154.618ZM449.948 137.223C448.255 137.223 446.6 137.704 445.192 138.605C443.784 139.506 442.687 140.787 442.039 142.285C441.391 143.784 441.222 145.432 441.552 147.023C441.882 148.614 442.698 150.075 443.895 151.222C445.092 152.369 446.618 153.15 448.278 153.466C449.939 153.783 451.66 153.62 453.225 153C454.789 152.379 456.126 151.328 457.067 149.979C458.007 148.631 458.509 147.045 458.509 145.423C458.507 143.249 457.604 141.164 455.999 139.627C454.394 138.09 452.218 137.225 449.948 137.223V137.223Z" fill="#9F9FA9"/>
<path d="M514.807 92.0765C512.909 92.0765 511.053 91.5372 509.474 90.5268C507.895 89.5164 506.665 88.0803 505.939 86.4001C505.212 84.7199 505.022 82.871 505.392 81.0873C505.763 79.3037 506.677 77.6652 508.019 76.3793C509.362 75.0933 511.072 74.2175 512.935 73.8627C514.797 73.5079 516.727 73.69 518.481 74.386C520.235 75.0819 521.734 76.2605 522.789 77.7726C523.844 79.2847 524.407 81.0625 524.407 82.8811C524.404 85.3191 523.392 87.6563 521.592 89.3802C519.792 91.1041 517.352 92.0738 514.807 92.0765ZM514.807 74.6807C513.114 74.6807 511.459 75.1617 510.051 76.0628C508.643 76.9639 507.546 78.2447 506.898 79.7432C506.25 81.2416 506.08 82.8905 506.411 84.4813C506.741 86.072 507.556 87.5332 508.754 88.68C509.951 89.8269 511.477 90.6079 513.137 90.9243C514.798 91.2407 516.519 91.0783 518.084 90.4576C519.648 89.8369 520.985 88.7857 521.926 87.4372C522.866 86.0886 523.368 84.5031 523.368 82.8812C523.366 80.707 522.463 78.6226 520.858 77.0853C519.253 75.5479 517.077 74.6831 514.807 74.6807V74.6807Z" fill="#9F9FA9"/>
<path d="M135.6 282.602C133.701 282.602 131.845 282.063 130.266 281.053C128.688 280.042 127.457 278.606 126.731 276.926C126.004 275.246 125.814 273.397 126.184 271.613C126.555 269.829 127.469 268.191 128.811 266.905C130.154 265.619 131.864 264.743 133.726 264.388C135.589 264.033 137.519 264.215 139.273 264.911C141.027 265.607 142.526 266.786 143.581 268.298C144.636 269.81 145.199 271.588 145.199 273.407C145.196 275.845 144.184 278.182 142.384 279.906C140.585 281.63 138.145 282.599 135.6 282.602ZM135.6 265.206C133.906 265.206 132.251 265.687 130.843 266.588C129.435 267.489 128.338 268.77 127.69 270.268C127.042 271.767 126.872 273.416 127.203 275.007C127.533 276.597 128.348 278.059 129.546 279.205C130.743 280.352 132.268 281.133 133.929 281.45C135.59 281.766 137.311 281.604 138.876 280.983C140.44 280.363 141.777 279.311 142.718 277.963C143.658 276.614 144.161 275.029 144.161 273.407C144.158 271.233 143.255 269.148 141.65 267.611C140.045 266.074 137.869 265.209 135.6 265.206Z" fill="#9F9FA9"/>
<path d="M206.512 151.222C204.24 151.222 201.991 151.651 199.893 152.483C197.795 153.316 195.888 154.536 194.282 156.075C192.676 157.613 191.402 159.439 190.533 161.45C189.663 163.46 189.216 165.614 189.216 167.79C189.216 176.94 206.512 207.137 206.512 207.137C206.512 207.137 223.807 176.94 223.807 167.79C223.807 165.614 223.36 163.46 222.491 161.45C221.622 159.439 220.348 157.613 218.742 156.075C217.136 154.536 215.229 153.316 213.131 152.483C211.032 151.651 208.783 151.222 206.512 151.222ZM206.512 176.488C204.716 176.488 202.96 175.977 201.467 175.022C199.974 174.066 198.81 172.707 198.123 171.118C197.435 169.529 197.256 167.78 197.606 166.093C197.956 164.406 198.821 162.856 200.091 161.639C201.361 160.423 202.979 159.594 204.74 159.259C206.502 158.923 208.327 159.095 209.987 159.754C211.646 160.412 213.064 161.527 214.062 162.957C215.059 164.388 215.592 166.069 215.592 167.79C215.592 170.096 214.635 172.309 212.932 173.94C211.23 175.571 208.92 176.488 206.512 176.488Z" fill="#383EA8"/>
<path d="M344.445 89.0938C339.858 89.0938 335.458 90.8392 332.215 93.9462C328.971 97.0532 327.149 101.267 327.149 105.661C327.149 114.811 344.445 145.009 344.445 145.009C344.445 145.009 361.74 114.811 361.74 105.661C361.74 103.486 361.293 101.331 360.424 99.3211C359.555 97.311 358.281 95.4846 356.675 93.9462C355.069 92.4078 353.162 91.1874 351.064 90.3549C348.965 89.5223 346.716 89.0937 344.445 89.0938ZM344.445 114.359C342.649 114.359 340.893 113.849 339.4 112.893C337.907 111.937 336.743 110.579 336.056 108.99C335.368 107.4 335.189 105.652 335.539 103.964C335.889 102.277 336.754 100.727 338.024 99.5108C339.294 98.2944 340.912 97.466 342.673 97.1304C344.435 96.7948 346.26 96.9671 347.92 97.6254C349.579 98.2837 350.997 99.3985 351.995 100.829C352.992 102.259 353.525 103.941 353.525 105.661C353.525 107.968 352.568 110.18 350.865 111.812C349.163 113.443 346.853 114.359 344.445 114.359Z" fill="#383EA8"/>
<path d="M683.986 351.785H448.512V353H683.986V351.785Z" fill="#2F2E41"/>
<path d="M642.825 36.023C639.164 46.4052 633.551 55.865 622.11 55.865C610.67 55.865 602.041 46.964 601.396 36.023C600.573 22.0426 610.406 16.1232 622.11 16.1811C635.937 16.2495 647.169 23.7019 642.825 36.023Z" fill="#2F2E41"/>
<path d="M642.279 34.4561H601.396V84.0609H642.279V34.4561Z" fill="#2F2E41"/>
<path d="M643.48 71.4121H646.957C646.957 71.4121 655.458 81.7751 651.594 95.8391C647.73 109.903 650.821 112.494 650.821 112.494C650.821 112.494 655.851 127.724 650.442 150.671C645.033 173.617 655.458 179.853 655.458 179.853L645.798 161.348L640.389 112.494L643.48 71.4121Z" fill="#575A89"/>
<path opacity="0.1" d="M643.48 72.6294H646.957C646.957 72.6294 655.458 82.9923 651.594 97.0564C647.73 111.12 650.821 113.711 650.821 113.711C650.821 113.711 655.851 128.941 650.442 151.888C645.033 174.834 655.458 181.07 655.458 181.07L645.798 162.565L640.389 113.711L643.48 72.6294Z" fill="black"/>
<path d="M631.309 53.4618C631.309 53.4618 628.218 65.3052 629.764 65.3052C631.309 65.3052 636.718 71.597 636.718 71.597L640.196 83.8105L637.491 92.693L628.218 90.8425L616.627 78.629L613.15 75.298L610.059 64.565C610.059 64.565 613.922 60.1237 611.218 56.4226C608.513 52.7216 631.309 53.4618 631.309 53.4618Z" fill="#FBBEBE"/>
<path opacity="0.1" d="M631.309 53.4618C631.309 53.4618 628.218 65.3052 629.764 65.3052C631.309 65.3052 636.718 71.597 636.718 71.597L640.196 83.8105L637.491 92.693L628.218 90.8425L616.627 78.629L613.15 75.298L610.059 64.565C610.059 64.565 613.922 60.1237 611.218 56.4226C608.513 52.7216 631.309 53.4618 631.309 53.4618Z" fill="black"/>
<path d="M537.807 86.4013L529.306 73.0775C529.306 73.0775 520.131 53.6305 513.562 60.6625C506.994 67.6946 523.511 81.96 523.511 81.96L532.011 92.6931L537.807 86.4013Z" fill="#FBBEBE"/>
<path d="M650.628 202.244L644.446 245.547C644.446 245.547 645.218 248.878 637.491 261.091C629.763 273.305 608.899 299.952 608.899 299.952L602.717 288.849C602.717 288.849 610.058 253.689 622.809 246.287L621.263 192.992L650.628 202.244Z" fill="#FBBEBE"/>
<path opacity="0.1" d="M650.628 202.244L644.446 245.547C644.446 245.547 645.218 248.878 637.491 261.091C629.763 273.305 608.899 299.952 608.899 299.952L602.717 288.849C602.717 288.849 610.058 253.689 622.809 246.287L621.263 192.992L650.628 202.244Z" fill="black"/>
<path d="M602.717 284.408L611.218 299.953C611.218 299.953 604.263 318.828 606.968 320.679C609.672 322.529 613.149 339.184 605.808 337.333C598.467 335.483 592.672 328.081 592.672 326.97C592.672 325.86 596.922 310.316 594.604 306.615C592.285 302.913 590.74 301.803 590.74 301.803L584.944 311.056L583.012 309.945L592.672 294.401C592.672 294.401 593.831 291.44 598.467 289.59L602.717 284.408Z" fill="#2F2E41"/>
<path opacity="0.1" d="M602.717 284.408L611.218 299.953C611.218 299.953 604.263 318.828 606.968 320.679C609.672 322.529 613.149 339.184 605.808 337.333C598.467 335.483 592.672 328.081 592.672 326.97C592.672 325.86 596.922 310.316 594.604 306.615C592.285 302.913 590.74 301.803 590.74 301.803L584.944 311.056L583.012 309.945L592.672 294.401C592.672 294.401 593.831 291.44 598.467 289.59L602.717 284.408Z" fill="black"/>
<path d="M621.354 196.101C621.354 196.101 624.354 237.034 617.786 247.767V301.063L608.899 302.173C608.899 302.173 590.953 273.957 597.521 246.199C604.09 218.441 590.74 192.992 590.74 192.992L621.354 196.101Z" fill="#FBBEBE"/>
<path d="M619.138 62.5293C628.101 62.5293 635.366 55.5698 635.366 46.9849C635.366 38.3999 628.101 31.4404 619.138 31.4404C610.176 31.4404 602.911 38.3999 602.911 46.9849C602.911 55.5698 610.176 62.5293 619.138 62.5293Z" fill="#FBBEBE"/>
<path d="M635.559 87.882L619.331 68.2664L610.058 62.3447L606.195 67.1561L595.376 70.117C595.376 70.117 588.422 71.5974 581.08 79.7397C573.739 87.882 560.603 92.6934 560.603 92.6934L549.784 90.8429C549.784 90.8429 537.034 85.2913 537.034 83.8109C537.034 82.3304 525.829 93.8037 528.534 98.245C531.238 102.686 537.034 108.238 540.125 111.199C543.216 114.16 544.375 122.672 563.307 120.081C582.24 117.49 589.194 108.608 589.194 108.608C589.194 108.608 592.672 125.633 602.717 128.964C612.763 132.295 645.605 134.515 645.605 134.515L652.56 112.309C652.56 112.309 660.287 102.686 649.855 88.6223C649.855 88.6223 649.655 80.7567 648.533 75.5226C648.097 73.4868 647.521 71.8491 646.764 71.2273C644.059 69.0066 629.764 65.3056 629.764 65.3056C629.764 65.3056 632.082 72.7077 633.241 73.0778C634.4 73.4479 637.105 86.0315 635.559 87.882Z" fill="#575A89"/>
<path d="M583.592 198.359C603.05 197.063 614.378 200.117 619.432 202.445C620.371 202.852 621.256 203.366 622.067 203.977C622.438 204.277 622.616 204.51 622.616 204.65C622.616 205.761 649.276 207.981 658.935 205.761C668.594 203.54 652.367 155.797 648.116 151.725C643.866 147.654 646.157 132.754 646.157 132.754C646.157 132.754 637.684 130.999 635.366 131.74C633.048 132.48 621.07 130.629 616.82 128.409C612.57 126.188 607.161 127.669 603.683 126.928C602.13 126.599 601.346 127.154 600.955 127.872C600.348 128.949 599.431 129.837 598.313 130.43C590.11 134.956 583.526 166.252 578.569 183.555C573.16 202.43 583.592 198.359 583.592 198.359Z" fill="#191847"/>
<path d="M619.331 297.732L620.877 305.874C620.877 305.874 628.991 316.977 626.673 326.23C626.673 326.23 628.604 338.443 635.559 341.774C642.514 345.105 636.718 352.878 630.15 352.507C623.582 352.137 617.4 352.878 616.627 351.027C615.854 349.177 611.218 331.041 611.218 331.041L609.949 352.263L606.085 352.633L607.354 328.081C607.354 328.081 604.263 322.529 608.513 313.276L607.44 299.074C607.44 299.074 618.172 301.433 619.331 297.732Z" fill="#2F2E41"/>
<path opacity="0.1" d="M619.432 202.444C620.372 202.852 621.256 203.366 622.067 203.977C622.272 200.479 623.454 179.328 622.036 179.668L619.432 202.444Z" fill="black"/>
<path d="M612.42 25.5797C612.42 25.5797 612.241 24.6214 605.212 27.1461C598.183 29.6709 593.97 48.3027 597.484 59.2434C598.901 63.6525 597.749 66.8314 595.868 69.0557C588.812 77.4024 591.59 89.9389 601.868 94.231C602.158 94.3522 602.454 94.4719 602.756 94.5903L607.149 97.1151C607.149 97.1151 601.549 90.0569 604.351 81.0281C606.785 73.3352 607.086 65.1679 605.223 57.33C604.902 56.0078 604.537 54.6448 604.122 53.254C600.607 41.4716 602.317 42.8324 614.617 31.05C614.617 31.05 621.646 36.0996 627.796 38.6244C633.946 41.1492 639.217 43.6739 634.824 52.0899C630.431 60.5058 619.888 68.0802 626.917 79.0209C633.946 89.9615 634.824 85.7536 633.946 89.9616L633.067 94.1695L638.339 89.12L634.824 95.8527C634.824 95.8527 646.246 95.8527 649.76 87.4368L651.518 89.12C651.518 89.12 658.546 77.3377 645.367 66.3969C645.367 66.3969 640.975 63.8722 647.125 55.4562C653.275 47.0403 648.551 28.946 640.644 25.5797C632.737 22.2133 612.42 25.5797 612.42 25.5797Z" fill="#2F2E41"/>
<path d="M622.11 20.3585C626.626 20.3585 630.287 16.8519 630.287 12.5262C630.287 8.20051 626.626 4.69385 622.11 4.69385C617.595 4.69385 613.934 8.20051 613.934 12.5262C613.934 16.8519 617.595 20.3585 622.11 20.3585Z" fill="#2F2E41"/>
<path d="M612.298 8.34846C612.299 6.40686 613.051 4.53452 614.411 3.09462C615.771 1.65472 617.641 0.749898 619.657 0.555666C619.388 0.530073 619.116 0.516113 618.84 0.516113C616.671 0.516113 614.591 1.3413 613.058 2.81015C611.524 4.279 610.663 6.27119 610.663 8.34846C610.663 10.4257 611.524 12.4179 613.058 13.8868C614.591 15.3556 616.671 16.1808 618.84 16.1808C619.116 16.1808 619.388 16.1668 619.657 16.1413C617.641 15.947 615.771 15.0422 614.411 13.6023C613.052 12.1624 612.299 10.2901 612.298 8.34846Z" fill="#2F2E41"/>
<path d="M514.807 29.4512C512.536 29.4512 510.287 29.8797 508.188 30.7123C506.09 31.5449 504.183 32.7652 502.577 34.3037C500.971 35.8421 499.697 37.6685 498.828 39.6785C497.959 41.6886 497.512 43.8429 497.512 46.0186C497.512 55.1685 514.807 85.3662 514.807 85.3662C514.807 85.3662 532.103 55.1685 532.103 46.0186C532.103 43.8429 531.655 41.6886 530.786 39.6785C529.917 37.6685 528.643 35.8421 527.037 34.3037C525.431 32.7652 523.524 31.5449 521.426 30.7123C519.328 29.8797 517.078 29.4512 514.807 29.4512ZM514.807 54.7165C513.011 54.7165 511.256 54.2064 509.762 53.2506C508.269 52.2949 507.105 50.9365 506.418 49.3471C505.731 47.7578 505.551 46.009 505.901 44.3217C506.252 42.6345 507.117 41.0847 508.387 39.8683C509.656 38.6519 511.274 37.8235 513.036 37.4879C514.797 37.1522 516.623 37.3245 518.282 37.9828C519.941 38.6411 521.359 39.756 522.357 41.1863C523.355 42.6167 523.887 44.2983 523.887 46.0186C523.887 48.3254 522.931 50.5378 521.228 52.1689C519.525 53.8001 517.215 54.7165 514.807 54.7165Z" fill="#383EA8"/>
<path d="M375.38 337.714C380.549 337.714 384.739 333.701 384.739 328.75C384.739 323.799 380.549 319.785 375.38 319.785C370.212 319.785 366.022 323.799 366.022 328.75C366.022 333.701 370.212 337.714 375.38 337.714Z" fill="#E2508C"/>
<path d="M433.606 299.795C438.775 299.795 442.965 295.781 442.965 290.83C442.965 285.879 438.775 281.866 433.606 281.866C428.438 281.866 424.248 285.879 424.248 290.83C424.248 295.781 428.438 299.795 433.606 299.795Z" fill="#E2508C"/>
<path d="M361.6 264.487C366.769 264.487 370.959 260.474 370.959 255.523C370.959 250.572 366.769 246.558 361.6 246.558C356.431 246.558 352.241 250.572 352.241 255.523C352.241 260.474 356.431 264.487 361.6 264.487Z" fill="#E2508C"/>
</g>
<path fill-rule="evenodd" clip-rule="evenodd" d="M133.954 255.379C137.867 250.809 140.516 245.208 140.073 238.933C138.798 220.85 113.5 224.828 108.579 233.955C103.658 243.081 104.242 266.231 110.602 267.862C113.139 268.513 118.542 266.919 124.041 263.621L120.589 287.918H140.971L133.954 255.379Z" fill="#B28B67"/>
<path fill-rule="evenodd" clip-rule="evenodd" d="M116.629 224.014C119.414 223.169 123.457 222.882 125.157 223.076C124.19 220.77 123.806 218.201 124.119 215.699C124.423 213.268 125.515 211.198 126.525 209.029C126.99 208.029 127.518 207.035 128.304 206.27C129.105 205.491 130.119 204.977 131.182 204.732C132.271 204.48 133.408 204.501 134.498 204.729C134.98 204.83 135.413 205.049 135.886 205.171C136.37 205.296 136.605 204.995 136.956 204.692C137.803 203.961 139.045 203.601 140.116 203.472C141.319 203.327 142.566 203.508 143.712 203.901C144.828 204.284 145.901 204.905 146.707 205.811C147.067 206.214 147.393 206.673 147.605 207.179C147.692 207.387 147.706 207.51 147.914 207.587C148.107 207.657 148.333 207.659 148.532 207.726C150.456 208.375 152.101 209.854 152.997 211.753C153.52 212.861 153.767 214.812 153.699 216.999C153.632 219.185 151.647 224.891 149.791 226.972C148.134 228.83 145.699 230.056 143.349 230.592C144.909 232.366 145.948 234.583 146.715 236.837C147.549 239.286 148.066 241.831 148.256 244.424C148.437 246.887 148.454 249.492 147.874 251.903C147.331 254.157 146.169 256.007 144.231 257.18C143.343 257.718 142.388 258.122 141.427 258.491C140.48 258.854 139.53 259.208 138.538 259.412C136.661 259.798 134.498 259.732 133.052 258.245C132.53 257.709 131.957 257.035 131.577 256.381C131.44 256.145 131.358 255.991 131.524 255.761C131.723 255.485 132.045 255.274 132.3 255.058C133.758 253.829 134.661 252.188 134.888 250.237C135.119 248.258 134.585 245.703 132.651 244.84C130.263 243.773 127.634 244.997 125.512 246.138C124.611 242.971 122.759 240.12 119.856 238.667C116.645 237.06 112.959 236.872 109.659 235.494C108.799 235.134 107.923 234.726 107.29 233.994C107.025 233.688 106.715 233.291 106.609 232.887C106.47 232.355 106.815 231.91 107.081 231.495C108.492 229.298 113.844 224.859 116.629 224.014Z" fill="#01010B"/>
<path fill-rule="evenodd" clip-rule="evenodd" d="M40.0121 373.338C33.9148 365.11 18.6737 370.557 18.6828 377.368C18.7069 395.252 35.1096 480.154 35.966 485.514C36.8224 490.875 45.9966 492.628 46.5309 485.931C47.381 475.273 48.9603 438.329 47.3801 421.142C46.9185 416.122 46.4318 411.269 45.9417 406.723C54.5623 422.132 67.6709 443.911 85.2676 472.061L95.0477 467.615C87.3677 442.439 81.0702 424.665 76.1552 414.294C67.7396 396.535 59.8486 381.328 56.5275 375.971C52.1406 368.895 45.0252 369.835 40.0121 373.338Z" fill="#B28B67"/>
<path fill-rule="evenodd" clip-rule="evenodd" d="M94.3486 453.634L60.7809 374.514C52.7393 361.643 30.193 377.133 32.9353 384.598C39.1613 401.546 70.8252 456.413 72.6801 461.462L94.3486 453.634Z" fill="#1F28CF"/>
<path fill-rule="evenodd" clip-rule="evenodd" d="M17.8337 383.546C17.8337 405.972 27.7133 458.688 27.7201 463.626L51.6529 462.823C47.4694 416.99 45.7052 393.919 46.3603 393.608C47.8341 392.909 106.779 401.725 124.458 402.391C149.951 403.351 160.496 387.79 161.352 358.26H111.972C69.7474 363.275 41.9957 366.763 28.7168 368.724C20.1895 369.983 17.8337 377.369 17.8337 383.546Z" fill="#2B44FF"/>
<path fill-rule="evenodd" clip-rule="evenodd" d="M96.3714 465.134C97.9068 467.354 98.8268 469.072 99.1314 470.288C99.5019 471.766 99.795 473.985 100.011 476.944C98.2869 477.372 82.7953 481.215 53.5358 488.473C51.3326 484.8 51.4923 482.483 54.015 481.52C56.5377 480.558 58.6276 479.736 60.2847 479.054L79.4848 464.113C79.8542 463.826 80.3879 463.891 80.6769 464.258C80.6818 464.265 80.6867 464.271 80.6914 464.278L82.9197 467.284C85.6087 467.805 87.7063 467.879 89.2123 467.505C90.4359 467.201 92.0024 466.291 93.912 464.772L93.912 464.772C94.6448 464.19 95.7136 464.308 96.2991 465.038C96.3244 465.069 96.3485 465.101 96.3714 465.134Z" fill="#E4E4E4"/>
<path fill-rule="evenodd" clip-rule="evenodd" d="M47.8297 473.302C48.7798 475.825 49.2548 477.713 49.2548 478.966C49.2548 480.49 48.9997 482.713 48.4895 485.636C46.7129 485.636 30.7471 485.636 0.591843 485.636C-0.652843 481.542 0.0656624 479.332 2.74736 479.005C5.42907 478.679 7.6568 478.384 9.43057 478.121L31.6929 468.246C32.1213 468.056 32.6234 468.248 32.8144 468.674C32.8176 468.681 32.8208 468.689 32.8238 468.696L34.2548 472.15C36.7374 473.302 38.7547 473.879 40.3068 473.879C41.5679 473.879 43.3094 473.372 45.5314 472.358L45.5314 472.358C46.3841 471.969 47.3923 472.342 47.7832 473.19C47.8 473.227 47.8155 473.264 47.8297 473.302Z" fill="#E4E4E4"/>
<path d="M6.36907 485.636H45.4332C47.0748 485.636 48.4055 486.96 48.4055 488.594C48.4055 490.227 47.0748 491.551 45.4332 491.551H6.36907C4.72752 491.551 3.39679 490.227 3.39679 488.594C3.39679 486.96 4.72752 485.636 6.36907 485.636Z" fill="#2F3676"/>
<path fill-rule="evenodd" clip-rule="evenodd" d="M163.9 363.118H73.0331C68.343 363.118 64.5409 366.901 64.5409 371.568V412.97H168.995C170.871 412.97 172.392 411.457 172.392 409.591V371.568C172.392 366.901 168.59 363.118 163.9 363.118Z" fill="#2F3676"/>
<path fill-rule="evenodd" clip-rule="evenodd" d="M73.033 363.118H71.17C67.011 363.118 63.4639 366.115 62.79 370.199L44.1594 483.102H53.234" fill="#2F3676"/>
<path d="M48.4057 500C39.9634 500 33.1197 493.191 33.1197 484.791C33.1197 476.391 39.9634 469.582 48.4057 469.582C56.8479 469.582 63.6917 476.391 63.6917 484.791C63.6917 493.191 56.8479 500 48.4057 500Z" fill="#191847"/>
<path fill-rule="evenodd" clip-rule="evenodd" d="M161.352 498.311C196.997 498.311 225.893 469.561 225.893 434.095C225.893 398.629 196.997 369.878 161.352 369.878C125.707 369.878 96.8112 398.629 96.8112 434.095C96.8112 469.561 125.707 498.311 161.352 498.311ZM161.352 486.482C132.273 486.482 108.7 463.028 108.7 434.095C108.7 405.162 132.273 381.708 161.352 381.708C190.431 381.708 214.004 405.162 214.004 434.095C214.004 463.028 190.431 486.482 161.352 486.482Z" fill="#9F9FA9"/>
<path d="M157.955 378.328H164.749V489.862H157.955V378.328Z" fill="#9F9FA9"/>
<path d="M120.519 395.856L122.921 393.466C123.584 392.806 124.659 392.806 125.323 393.466L202.185 469.942C202.849 470.602 202.849 471.672 202.185 472.332L199.783 474.722C199.12 475.382 198.045 475.382 197.381 474.722L120.519 398.246C119.855 397.586 119.855 396.516 120.519 395.856Z" fill="#9F9FA9"/>
<path d="M105.303 435.784V432.404C105.303 431.471 106.064 430.714 107.002 430.714H215.702C216.64 430.714 217.401 431.471 217.401 432.404V435.784C217.401 436.717 216.64 437.474 215.702 437.474H107.002C106.064 437.474 105.303 436.717 105.303 435.784Z" fill="#9F9FA9"/>
<path d="M122.921 474.723L120.519 472.333C119.856 471.673 119.856 470.603 120.519 469.943L197.382 393.466C198.045 392.806 199.12 392.806 199.784 393.466L202.186 395.856C202.849 396.516 202.849 397.586 202.186 398.246L125.323 474.723C124.659 475.382 123.584 475.382 122.921 474.723Z" fill="#9F9FA9"/>
<path fill-rule="evenodd" clip-rule="evenodd" d="M75.1933 271.306L43.0047 261.692C36.9998 257.041 31.3359 253.64 26.0129 251.49C24.4647 251.2 21.9017 251.369 25.1045 254.984C28.3073 258.598 31.5127 262.544 30.5983 264.06C29.6839 265.576 26.352 264.433 25.3878 266.834C24.7449 268.435 30.2649 269.581 41.9478 270.273L66.9751 284.928L75.1933 271.306ZM78.0377 327.772L50.949 347.564C43.602 349.537 37.4638 351.991 32.5344 354.927C31.37 355.982 29.9628 358.12 34.7918 357.751C39.6209 357.381 44.717 357.209 45.3833 358.847C46.0497 360.486 43.1274 362.446 44.4743 364.657C45.3722 366.132 49.6145 362.435 57.201 353.568L84.0259 342.501L78.0377 327.772Z" fill="#B28B67"/>
<path fill-rule="evenodd" clip-rule="evenodd" d="M120.113 274.472C105.362 301.839 84.0304 322.819 53.1056 344.628L64.8149 357.764C99.3437 344.997 117.567 337.294 126.516 311.437C128.762 304.947 130.332 284.26 131.679 273.375L120.113 274.472Z" fill="#575A89"/>
<path fill-rule="evenodd" clip-rule="evenodd" d="M161.352 365.654H95.9621C110.774 320.707 118.341 289.858 118.662 273.107C118.678 272.253 120.263 270.749 120.964 270.946C126.093 272.387 131.581 271.848 137.428 269.329C152.93 294.136 158.291 324.677 161.352 365.654Z" fill="#F2F2F2"/>
<path fill-rule="evenodd" clip-rule="evenodd" d="M131.848 269.368C113.104 269.521 82.6938 272.927 47.6221 261.724L44.1595 278.938C70.6664 295.901 97.5068 309.04 121.026 307.174C110.813 350.762 111.284 386.444 133.831 386.444C144.598 386.444 156.22 386.444 168.697 386.444C174.234 349.416 159.681 298.077 146.188 272.181C145.673 271.192 144.576 269.328 141.992 269.328C139.741 269.328 136.364 269.328 131.861 269.328C131.857 269.342 131.852 269.355 131.848 269.368Z" fill="#575A89"/>
<defs>
<clipPath id="clip0_147_316">
<rect width="589" height="353" fill="white" transform="translate(126)"/>
</clipPath>
</defs>
</svg>
