<svg width="115" height="156" viewBox="0 0 115 156" fill="none" xmlns="http://www.w3.org/2000/svg">
<path fill-rule="evenodd" clip-rule="evenodd" d="M68.1949 27.3289C70.187 24.9251 71.5353 21.9791 71.31 18.678C70.6609 9.16666 57.7816 11.259 55.2764 16.0595C52.7711 20.86 53.0688 33.0369 56.3066 33.8949C57.5979 34.237 60.3486 33.3989 63.1482 31.6641L61.391 44.4444H71.7669L68.1949 27.3289Z" fill="#B28B67"/>
<path fill-rule="evenodd" clip-rule="evenodd" d="M59.3748 10.8311C60.7926 10.3867 62.8508 10.2359 63.7166 10.3379C63.2241 9.12482 63.0286 7.77331 63.1879 6.45737C63.3428 5.1787 63.8986 4.08994 64.4126 2.94906C64.6496 2.42318 64.9181 1.90018 65.3184 1.49795C65.7262 1.08815 66.2424 0.817657 66.7838 0.688607C67.3377 0.556512 67.917 0.567511 68.4718 0.687389C68.7173 0.740413 68.9375 0.855777 69.1782 0.919908C69.4247 0.985615 69.5443 0.827008 69.7232 0.667612C70.1544 0.283544 70.7865 0.0939459 71.332 0.0260891C71.944 -0.0500081 72.5791 0.0448984 73.1628 0.251729C73.7309 0.453079 74.2767 0.780038 74.6874 1.25636C74.8703 1.46839 75.0363 1.70972 75.1442 1.97617C75.1885 2.08551 75.1958 2.15029 75.3019 2.19034C75.4001 2.22742 75.5149 2.2285 75.6162 2.26379C76.5958 2.60486 77.4334 3.38296 77.8894 4.38201C78.1555 4.96484 78.2815 5.99102 78.247 7.14119C78.2125 8.29136 77.2022 11.2925 76.2573 12.3871C75.4139 13.3642 74.1743 14.009 72.9778 14.2913C73.772 15.2244 74.3006 16.3904 74.6915 17.5763C75.1161 18.8645 75.3789 20.2029 75.4759 21.5667C75.5681 22.8624 75.5766 24.2327 75.2811 25.5008C75.0047 26.6866 74.4136 27.6594 73.4267 28.2766C72.9747 28.5593 72.4884 28.7717 71.9992 28.9658C71.5171 29.1571 71.0336 29.343 70.5286 29.4504C69.5729 29.6535 68.4716 29.6186 67.7354 28.8366C67.4701 28.5546 67.1783 28.2004 66.9847 27.856C66.9151 27.7321 66.8731 27.6511 66.9577 27.53C67.059 27.3851 67.2229 27.274 67.353 27.1605C68.0951 26.5138 68.5545 25.6504 68.6703 24.6244C68.7878 23.5834 68.5158 22.2397 67.5312 21.7854C66.3159 21.2245 64.9775 21.8683 63.8973 22.4683C63.4382 20.8026 62.4956 19.3029 61.0177 18.5388C59.3827 17.6936 57.5066 17.5946 55.8264 16.8694C55.3885 16.6804 54.9426 16.4659 54.6202 16.0808C54.4855 15.9199 54.3275 15.7111 54.2737 15.4982C54.203 15.2186 54.3785 14.9842 54.514 14.7663C55.2324 13.6105 57.957 11.2755 59.3748 10.8311Z" fill="#01010B"/>
<path fill-rule="evenodd" clip-rule="evenodd" d="M20.3698 89.3754C17.2657 85.0476 9.5066 87.9126 9.51127 91.4953C9.52354 100.902 17.874 145.56 18.31 148.38C18.746 151.199 23.4165 152.122 23.6885 148.599C24.1212 142.993 24.9252 123.561 24.1208 114.52C23.8858 111.88 23.638 109.327 23.3885 106.936C27.7772 115.041 34.4507 126.497 43.409 141.303L48.3879 138.965C44.4781 125.722 41.2721 116.373 38.7699 110.918C34.4856 101.577 30.4684 93.5781 28.7776 90.7604C26.5443 87.0386 22.9219 87.5326 20.3698 89.3754Z" fill="#B28B67"/>
<path fill-rule="evenodd" clip-rule="evenodd" d="M48.032 131.611L30.943 89.9939C26.8492 83.2239 15.371 91.3715 16.7671 95.298C19.9367 104.213 36.0565 133.073 37.0008 135.728L48.032 131.611Z" fill="#1F28CF"/>
<path fill-rule="evenodd" clip-rule="evenodd" d="M9.07894 94.7448C9.07894 106.541 14.1086 134.269 14.112 136.867L26.296 136.444C24.1662 112.336 23.2681 100.201 23.6016 100.037C24.3519 99.6696 54.3603 104.307 63.3604 104.657C76.3384 105.162 81.7072 96.9769 82.1429 81.4443H57.0038C35.5077 84.0822 21.3796 85.9168 14.6195 86.9483C10.2783 87.6107 9.07894 91.4953 9.07894 94.7448Z" fill="#2B44FF"/>
<path fill-rule="evenodd" clip-rule="evenodd" d="M49.0618 137.66C49.8435 138.827 50.3118 139.731 50.4669 140.37C50.6555 141.148 50.8047 142.315 50.9145 143.872C50.037 144.097 42.1503 146.118 27.2546 149.936C26.1329 148.004 26.2143 146.785 27.4985 146.279C28.7828 145.773 29.8467 145.34 30.6904 144.981L40.465 137.123C40.653 136.972 40.9247 137.006 41.0718 137.199C41.0744 137.202 41.0768 137.206 41.0793 137.209L42.2136 138.791C43.5826 139.065 44.6504 139.103 45.4171 138.907C46.0401 138.747 46.8376 138.268 47.8097 137.469L47.8097 137.469C48.1828 137.163 48.7269 137.225 49.025 137.609C49.0378 137.625 49.0501 137.642 49.0618 137.66Z" fill="#E4E4E4"/>
<path fill-rule="evenodd" clip-rule="evenodd" d="M24.3497 141.956C24.8334 143.283 25.0752 144.277 25.0752 144.935C25.0752 145.737 24.9453 146.906 24.6856 148.444C23.7812 148.444 15.6531 148.444 0.301317 148.444C-0.332342 146.291 0.0334415 145.128 1.39867 144.956C2.7639 144.784 3.89802 144.629 4.80103 144.491L16.1346 139.297C16.3527 139.197 16.6083 139.298 16.7055 139.522C16.7072 139.526 16.7088 139.53 16.7103 139.533L17.4388 141.35C18.7027 141.956 19.7297 142.259 20.5199 142.259C21.1619 142.259 22.0485 141.993 23.1797 141.46L23.1796 141.46C23.6138 141.255 24.127 141.451 24.326 141.897C24.3346 141.917 24.3425 141.936 24.3497 141.956Z" fill="#E4E4E4"/>
<path d="M3.24248 148.444H23.1297C23.9654 148.444 24.6429 149.14 24.6429 149.999C24.6429 150.859 23.9654 151.555 23.1297 151.555H3.24248C2.40678 151.555 1.72932 150.859 1.72932 149.999C1.72932 149.14 2.40678 148.444 3.24248 148.444Z" fill="#2F3676"/>
<path fill-rule="evenodd" clip-rule="evenodd" d="M83.4398 83.9995H37.1804C34.7928 83.9995 32.8571 85.9894 32.8571 88.444V110.222H86.0338C86.9889 110.222 87.7632 109.426 87.7632 108.444V88.444C87.7632 85.9894 85.8275 83.9995 83.4398 83.9995Z" fill="#2F3676"/>
<path fill-rule="evenodd" clip-rule="evenodd" d="M37.1805 83.9995H36.2321C34.1147 83.9995 32.3089 85.576 31.9659 87.7239L22.4812 147.111H27.101" fill="#2F3676"/>
<path d="M24.6428 156C20.345 156 16.8609 152.418 16.8609 148C16.8609 143.581 20.345 140 24.6428 140C28.9407 140 32.4248 143.581 32.4248 148C32.4248 152.418 28.9407 156 24.6428 156Z" fill="#191847"/>
<path fill-rule="evenodd" clip-rule="evenodd" d="M82.1429 155.111C100.289 155.111 115 139.988 115 121.333C115 102.678 100.289 87.5552 82.1429 87.5552C63.9964 87.5552 49.2857 102.678 49.2857 121.333C49.2857 139.988 63.9964 155.111 82.1429 155.111ZM82.1429 148.889C67.3391 148.889 55.3383 136.551 55.3383 121.333C55.3383 106.114 67.3391 93.7774 82.1429 93.7774C96.9466 93.7774 108.947 106.114 108.947 121.333C108.947 136.551 96.9466 148.889 82.1429 148.889Z" fill="#9F9FA9"/>
<path d="M80.4135 91.9995H83.8722V150.666H80.4135V91.9995Z" fill="#9F9FA9"/>
<path d="M61.355 101.22L62.5778 99.9625C62.9155 99.6154 63.4629 99.6154 63.8006 99.9625L102.931 140.189C103.268 140.536 103.268 141.099 102.931 141.446L101.708 142.703C101.37 143.05 100.823 143.05 100.485 142.703L61.355 102.477C61.0173 102.13 61.0173 101.567 61.355 101.22Z" fill="#9F9FA9"/>
<path d="M53.609 122.222V120.444C53.609 119.953 53.9961 119.555 54.4737 119.555H109.812C110.29 119.555 110.677 119.953 110.677 120.444V122.222C110.677 122.713 110.29 123.111 109.812 123.111H54.4737C53.9961 123.111 53.609 122.713 53.609 122.222Z" fill="#9F9FA9"/>
<path d="M62.5778 142.703L61.355 141.446C61.0173 141.099 61.0173 140.536 61.355 140.189L100.485 99.9623C100.823 99.6152 101.37 99.6152 101.708 99.9623L102.931 101.219C103.268 101.567 103.268 102.129 102.931 102.476L63.8006 142.703C63.463 143.05 62.9155 143.05 62.5778 142.703Z" fill="#9F9FA9"/>
<path fill-rule="evenodd" clip-rule="evenodd" d="M38.2802 35.7067L21.8932 30.6496C18.8362 28.2032 15.9527 26.4145 13.2428 25.2835C12.4547 25.131 11.1499 25.2195 12.7804 27.121C14.4109 29.0224 16.0428 31.0978 15.5772 31.8951C15.1117 32.6924 13.4155 32.0914 12.9246 33.3543C12.5973 34.1963 15.4075 34.7993 21.3552 35.1634L34.0964 42.8719L38.2802 35.7067ZM39.7282 65.4077L25.9376 75.8182C22.1973 76.8557 19.0724 78.1466 16.5629 79.6908C15.9701 80.2461 15.2537 81.3707 17.7121 81.1763C20.1705 80.982 22.765 80.8912 23.1042 81.7532C23.4434 82.6152 21.9557 83.6461 22.6414 84.8092C23.0985 85.5846 25.2582 83.6404 29.1204 78.9764L42.7768 73.1548L39.7282 65.4077Z" fill="#B28B67"/>
<path fill-rule="evenodd" clip-rule="evenodd" d="M61.1486 37.3717C53.6387 51.767 42.7791 62.8021 27.0355 74.2735L32.9967 81.1832C50.575 74.4677 59.8523 70.4159 64.4082 56.8152C65.5517 53.4017 66.3508 42.5202 67.0364 36.7948L61.1486 37.3717Z" fill="#575A89"/>
<path fill-rule="evenodd" clip-rule="evenodd" d="M82.1429 85.3332H48.8534C56.394 61.6911 60.246 45.4647 60.4095 36.6539C60.4178 36.2047 61.2248 35.4132 61.5818 35.5168C64.1927 36.2748 66.9865 35.9914 69.9633 34.6665C77.8552 47.7147 80.5844 63.7796 82.1429 85.3332Z" fill="#F2F2F2"/>
<path fill-rule="evenodd" clip-rule="evenodd" d="M67.1226 34.6876C57.5803 34.7679 42.0986 36.5592 24.2439 30.6665L22.4812 39.7214C35.9756 48.6435 49.6398 55.555 61.6131 54.5735C56.4138 77.5008 56.6535 96.2692 68.1321 96.2692C73.6137 96.2692 79.5303 96.2692 85.882 96.2692C88.7011 76.7927 81.292 49.7881 74.4232 36.1672C74.1609 35.6471 73.6024 34.6665 72.287 34.6665C71.1409 34.6665 69.4217 34.6665 67.1294 34.6665C67.1271 34.6735 67.1249 34.6805 67.1226 34.6876Z" fill="#575A89"/>
</svg>
