<svg width="299" height="186" viewBox="0 0 299 186" fill="none" xmlns="http://www.w3.org/2000/svg">
<g clip-path="url(#clip0_8_213)">
<path d="M292.5 34.2838C281.529 -8.6104 245.853 1.27962 201.356 0.0376927C177.831 -0.618875 153.077 7.13837 135.054 34.2838C102.836 82.8092 137.034 116.342 160.876 132.276C172.394 139.989 182.773 149.264 191.712 159.832C207.816 178.833 238.797 202.444 275.694 165.449C302.438 138.635 299.808 62.8556 292.5 34.2838Z" fill="#F06FA4"/>
<path d="M41.1793 107.657C40.8837 107.222 40.5931 106.775 40.3155 106.329L40.7639 106.053C41.0377 106.494 41.3244 106.935 41.6161 107.364L41.1793 107.657Z" fill="#3F3D56"/>
<path d="M38.7261 103.521C38.2372 102.566 37.7828 101.581 37.3756 100.591L37.8633 100.393C38.2653 101.369 38.7135 102.341 39.1958 103.283L38.7261 103.521ZM36.274 97.5608C35.9506 96.5404 35.6663 95.4938 35.4288 94.4501L35.9431 94.3344C36.1772 95.3642 36.4576 96.3966 36.7767 97.4031L36.274 97.5608ZM34.846 91.2805C34.6966 90.2228 34.5895 89.1443 34.5275 88.0746L35.0538 88.0444C35.1148 89.0999 35.2206 90.1641 35.368 91.2075L34.846 91.2805ZM34.9995 84.8653L34.4727 84.8531C34.498 83.7818 34.568 82.7003 34.6806 81.6388L35.2049 81.6939C35.0937 82.7413 35.0246 83.8083 34.9995 84.8653ZM35.6709 78.5499L35.153 78.4521C35.3538 77.4011 35.6013 76.3456 35.8887 75.3149L36.3967 75.4549C36.1131 76.4717 35.869 77.513 35.6709 78.5499ZM37.3782 72.4303L36.8837 72.2488C37.2564 71.2449 37.6763 70.2438 38.1318 69.2734L38.6095 69.495C38.1601 70.4524 37.7458 71.4399 37.3782 72.4303ZM109.57 70.8103C109.158 69.8387 108.699 68.8715 108.207 67.9354L108.674 67.6925C109.173 68.6414 109.638 69.6218 110.055 70.6065L109.57 70.8103ZM40.0806 66.6713L39.623 66.4113C40.1568 65.4828 40.7366 64.5645 41.3462 63.6816L41.7806 63.9782C41.1793 64.8493 40.6072 65.7554 40.0806 66.6713ZM106.61 65.1819C106.042 64.2904 105.43 63.4111 104.79 62.5685L105.211 62.2528C105.859 63.1069 106.48 63.9981 107.055 64.9016L106.61 65.1819ZM43.6975 61.4333L43.2888 61.1022C43.9688 60.2727 44.6916 59.4612 45.4373 58.69L45.8173 59.0531C45.0815 59.8141 44.3683 60.6148 43.6975 61.4333ZM102.761 60.1121C102.054 59.3241 101.305 58.5559 100.536 57.8286L100.9 57.4488C101.679 58.186 102.438 58.9646 103.154 59.763L102.761 60.1121ZM48.1256 56.8536L47.7769 56.4608C48.5834 55.7529 49.4295 55.0695 50.2918 54.4296L50.6071 54.8495C49.7563 55.481 48.9215 56.1552 48.1256 56.8536ZM98.1311 55.7338C97.3042 55.0713 96.4395 54.4347 95.5612 53.842L95.8572 53.4083C96.7475 54.0091 97.6237 54.6541 98.4618 55.3257L98.1311 55.7338ZM53.2448 53.055L52.9653 52.6107C53.878 52.0431 54.8249 51.5068 55.7799 51.0168L56.0216 51.4825C55.0795 51.966 54.1453 52.495 53.2448 53.055ZM92.8437 52.1665C91.9176 51.6468 90.9596 51.16 89.9963 50.7194L90.2167 50.2432C91.1931 50.6898 92.1641 51.1834 93.1028 51.7099L92.8437 52.1665ZM58.919 50.1435L58.7167 49.6596C59.7101 49.2493 60.7326 48.8756 61.7558 48.5488L61.9169 49.0478C60.9076 49.3701 59.8989 49.7388 58.919 50.1435ZM87.0383 49.5113C86.0407 49.1512 85.015 48.8282 83.9898 48.5515L84.1281 48.0458C85.1671 48.3263 86.2068 48.6536 87.2182 49.0186L87.0383 49.5113ZM64.9981 48.2024L64.8792 47.6919C65.926 47.4506 66.9973 47.2498 68.063 47.095L68.1392 47.6136C67.0877 47.7663 66.031 47.9644 64.9981 48.2024V48.2024ZM80.8718 47.8464C79.8299 47.6555 78.765 47.5053 77.7066 47.4001L77.7591 46.8786C78.8318 46.9853 79.9113 47.1374 80.9673 47.331L80.8718 47.8464ZM71.3183 47.2841L71.2851 46.761C72.3572 46.6937 73.4503 46.6698 74.5245 46.6891L74.515 47.2132C73.4542 47.1939 72.3764 47.2178 71.3183 47.2841Z" fill="#9F9FA9"/>
<path d="M111.157 75.3198C111.016 74.8211 110.863 74.3183 110.701 73.8256L111.202 73.6631C111.366 74.1626 111.522 74.6723 111.664 75.1778L111.157 75.3198Z" fill="#3F3D56"/>
<path d="M107.943 45.9697H107.416C107.416 45.4452 107.425 44.9131 107.444 44.3882L107.97 44.4064C107.952 44.9253 107.943 45.4512 107.943 45.9697Z" fill="#3F3D56"/>
<path d="M108.194 41.255L107.669 41.1995C107.782 40.144 107.935 39.0799 108.124 38.0368L108.643 38.1294C108.456 39.1602 108.305 40.2119 108.194 41.255ZM109.316 35.0441L108.805 34.9146C109.069 33.8859 109.374 32.8546 109.712 31.8492L110.212 32.015C109.878 33.0087 109.577 34.0277 109.316 35.0441ZM193.383 29.5146C192.989 28.542 192.555 27.5716 192.091 26.6306L192.565 26.4003C193.034 27.3526 193.473 28.3345 193.872 29.3188L193.383 29.5146ZM111.326 29.0553L110.839 28.8539C111.249 27.8745 111.7 26.8968 112.181 25.9479L112.652 26.1836C112.177 27.1214 111.731 28.0874 111.326 29.0553ZM190.594 23.8461C190.064 22.9404 189.494 22.0418 188.9 21.1753L189.335 20.88C189.937 21.7568 190.513 22.6661 191.049 23.5825L190.594 23.8461ZM114.182 23.4145L113.729 23.1458C114.275 22.2358 114.863 21.3327 115.475 20.4617L115.907 20.7619C115.302 21.6226 114.722 22.5151 114.182 23.4145H114.182ZM187.018 18.6315C186.362 17.8089 185.669 17.0001 184.958 16.2275L185.347 15.8736C186.066 16.6554 186.768 17.4737 187.431 18.306L187.018 18.6315ZM117.819 18.239L117.409 17.9089C118.081 17.0843 118.792 16.2738 119.521 15.5L119.906 15.8583C119.185 16.6232 118.483 17.4242 117.819 18.239ZM182.731 13.9754C181.965 13.254 181.164 12.5513 180.349 11.8865L180.683 11.4814C181.507 12.1538 182.319 12.865 183.094 13.5949L182.731 13.9754ZM122.158 13.6317L121.8 13.2471C122.583 12.5266 123.401 11.8247 124.234 11.1613L124.564 11.5702C123.741 12.226 122.932 12.9195 122.158 13.6317V13.6317ZM177.822 9.97182C176.961 9.36608 176.067 8.78389 175.165 8.24136L175.438 7.793C176.351 8.34193 177.255 8.93104 178.127 9.54394L177.822 9.97182ZM127.11 9.68469L126.811 9.25348C127.688 8.65107 128.599 8.07259 129.518 7.5339L129.786 7.98532C128.878 8.51774 127.977 9.08945 127.11 9.68468V9.68469ZM172.39 6.70475C171.45 6.22747 170.482 5.77861 169.511 5.37031L169.716 4.88766C170.699 5.3007 171.679 5.75507 172.63 6.23797L172.39 6.70475ZM132.576 6.48122L132.342 6.01188C133.297 5.5405 134.281 5.09764 135.267 4.69574L135.467 5.18069C134.492 5.57784 133.52 6.01545 132.576 6.48121V6.48122ZM166.542 4.24571C165.545 3.90817 164.522 3.60236 163.5 3.33685L163.633 2.82989C164.667 3.09847 165.703 3.40799 166.712 3.74951L166.542 4.24571ZM138.444 4.09064L138.28 3.59263C139.293 3.26251 140.332 2.96476 141.368 2.70769L141.495 3.21618C140.472 3.47017 139.445 3.76434 138.444 4.09062L138.444 4.09064ZM160.4 2.64909C159.364 2.45779 158.307 2.30156 157.259 2.18461L157.318 1.66384C158.378 1.7822 159.448 1.94022 160.497 2.1337L160.4 2.64909ZM144.602 2.56285L144.512 2.04642C145.562 1.8646 146.633 1.71833 147.695 1.6115L147.748 2.13305C146.698 2.23848 145.64 2.38306 144.602 2.56284L144.602 2.56285ZM154.093 1.94431C153.037 1.9017 151.964 1.89608 150.916 1.92717L150.901 1.40333C151.961 1.37185 153.046 1.37735 154.114 1.42073L154.093 1.94431Z" fill="#9F9FA9"/>
<path d="M194.925 34.012C194.784 33.5132 194.632 33.0097 194.473 32.5152L194.975 32.3555C195.136 32.8558 195.29 33.3653 195.433 33.8699L194.925 34.012Z" fill="#9F9FA9"/>
<path d="M40.871 114.162C45.72 114.162 49.651 113.869 49.651 113.508C49.651 113.146 45.72 112.853 40.871 112.853C36.0219 112.853 32.091 113.146 32.091 113.508C32.091 113.869 36.0219 114.162 40.871 114.162Z" fill="#383EA8"/>
<path d="M110.891 82.5174C115.74 82.5174 119.671 82.2243 119.671 81.8627C119.671 81.5011 115.74 81.208 110.891 81.208C106.042 81.208 102.111 81.5011 102.111 81.8627C102.111 82.2243 106.042 82.5174 110.891 82.5174Z" fill="#383EA8"/>
<path d="M197.374 49.5633C202.223 49.5633 206.154 49.2702 206.154 48.9086C206.154 48.547 202.223 48.2539 197.374 48.2539C192.525 48.2539 188.594 48.547 188.594 48.9086C188.594 49.2702 192.525 49.5633 197.374 49.5633Z" fill="#6C63FF"/>
<path d="M193.895 46.7595L167.494 73.0093L167.867 73.3798L194.268 47.1301L193.895 46.7595Z" fill="#8282C1"/>
<path d="M159.84 76.3633H115.501V76.8874H159.84V76.3633Z" fill="#8282C1"/>
<path d="M107.408 79.936L82.6091 104.593L82.9818 104.963L107.781 80.3066L107.408 79.936Z" fill="#9F9FA9"/>
<path d="M75.1129 108.008H45.4804V108.532H75.1129V108.008Z" fill="#9F9FA9"/>
<path d="M37.4253 111.326L7.97925 140.603L8.35195 140.973L37.798 111.696L37.4253 111.326Z" fill="#9F9FA9"/>
<path d="M40.871 113.115C39.9072 113.115 38.9651 112.831 38.1637 112.299C37.3623 111.766 36.7376 111.01 36.3688 110.124C35.9999 109.239 35.9034 108.265 36.0914 107.325C36.2794 106.385 36.7435 105.522 37.4251 104.844C38.1066 104.166 38.9749 103.705 39.9202 103.518C40.8655 103.331 41.8453 103.427 42.7357 103.794C43.6262 104.16 44.3873 104.781 44.9228 105.578C45.4582 106.375 45.744 107.312 45.744 108.27C45.7426 109.554 45.2287 110.786 44.3152 111.694C43.4016 112.603 42.163 113.114 40.871 113.115ZM40.871 103.949C40.0115 103.949 39.1712 104.202 38.4565 104.677C37.7418 105.152 37.1847 105.827 36.8558 106.616C36.5268 107.406 36.4408 108.275 36.6084 109.113C36.7761 109.951 37.19 110.721 37.7978 111.325C38.4056 111.93 39.18 112.341 40.023 112.508C40.8661 112.675 41.7399 112.589 42.534 112.262C43.3282 111.935 44.0069 111.381 44.4845 110.671C44.962 109.96 45.2169 109.125 45.2169 108.27C45.2156 107.124 44.7573 106.026 43.9426 105.216C43.1279 104.406 42.0232 103.95 40.871 103.949Z" fill="#9F9FA9"/>
<path d="M79.7224 113.115C78.7586 113.115 77.8164 112.831 77.015 112.299C76.2136 111.766 75.589 111.009 75.2202 110.124C74.8514 109.239 74.7549 108.265 74.9429 107.325C75.1309 106.385 75.595 105.522 76.2765 104.844C76.9581 104.166 77.8264 103.705 78.7717 103.518C79.717 103.331 80.6968 103.427 81.5872 103.794C82.4777 104.16 83.2387 104.781 83.7742 105.578C84.3097 106.375 84.5955 107.312 84.5955 108.27C84.5941 109.555 84.0802 110.786 83.1666 111.694C82.253 112.603 81.0144 113.114 79.7224 113.115ZM79.7224 103.949C78.8628 103.949 78.0226 104.202 77.3079 104.677C76.5932 105.152 76.0361 105.827 75.7072 106.616C75.3783 107.406 75.2922 108.275 75.4599 109.113C75.6276 109.951 76.0415 110.721 76.6493 111.325C77.2571 111.93 78.0315 112.341 78.8745 112.508C79.7175 112.675 80.5914 112.589 81.3855 112.262C82.1796 111.935 82.8584 111.381 83.3359 110.671C83.8135 109.96 84.0684 109.125 84.0684 108.27C84.067 107.124 83.6087 106.026 82.794 105.216C81.9792 104.406 80.8746 103.95 79.7224 103.949Z" fill="#9F9FA9"/>
<path d="M110.891 81.4704C109.928 81.4704 108.985 81.1862 108.184 80.6538C107.383 80.1215 106.758 79.3648 106.389 78.4794C106.02 77.5941 105.924 76.6199 106.112 75.6801C106.3 74.7403 106.764 73.877 107.446 73.1994C108.127 72.5218 108.995 72.0603 109.941 71.8734C110.886 71.6864 111.866 71.7824 112.756 72.1491C113.647 72.5158 114.408 73.1368 114.943 73.9335C115.479 74.7303 115.764 75.667 115.764 76.6253C115.763 77.9099 115.249 79.1414 114.336 80.0497C113.422 80.9581 112.183 81.469 110.891 81.4704ZM110.891 72.3044C110.032 72.3044 109.192 72.5578 108.477 73.0326C107.762 73.5074 107.205 74.1823 106.876 74.9718C106.547 75.7614 106.461 76.6302 106.629 77.4684C106.797 78.3066 107.211 79.0765 107.818 79.6808C108.426 80.2851 109.201 80.6966 110.044 80.8633C110.887 81.03 111.76 80.9444 112.555 80.6174C113.349 80.2903 114.027 79.7365 114.505 79.0259C114.982 78.3153 115.237 77.4799 115.237 76.6253C115.236 75.4797 114.778 74.3814 113.963 73.5713C113.148 72.7613 112.044 72.3056 110.891 72.3044V72.3044Z" fill="#9F9FA9"/>
<path d="M164.449 81.4704C163.485 81.4704 162.543 81.1862 161.742 80.6538C160.94 80.1215 160.316 79.3648 159.947 78.4794C159.578 77.5941 159.482 76.6199 159.67 75.6801C159.858 74.7403 160.322 73.877 161.003 73.1994C161.685 72.5218 162.553 72.0603 163.498 71.8734C164.444 71.6864 165.424 71.7824 166.314 72.1491C167.204 72.5158 167.965 73.1368 168.501 73.9335C169.036 74.7303 169.322 75.667 169.322 76.6253C169.321 77.9099 168.807 79.1414 167.893 80.0497C166.98 80.9581 165.741 81.469 164.449 81.4704ZM164.449 72.3044C163.59 72.3044 162.749 72.5578 162.035 73.0326C161.32 73.5074 160.763 74.1823 160.434 74.9718C160.105 75.7614 160.019 76.6302 160.187 77.4684C160.354 78.3066 160.768 79.0765 161.376 79.6808C161.984 80.2851 162.758 80.6966 163.601 80.8633C164.444 81.03 165.318 80.9444 166.112 80.6174C166.906 80.2903 167.585 79.7365 168.063 79.0259C168.54 78.3153 168.795 77.4799 168.795 76.6253C168.794 75.4797 168.335 74.3814 167.521 73.5713C166.706 72.7612 165.601 72.3056 164.449 72.3044V72.3044Z" fill="#9F9FA9"/>
<path d="M197.374 48.5163C196.41 48.5163 195.468 48.2322 194.667 47.6998C193.865 47.1674 193.241 46.4107 192.872 45.5254C192.503 44.64 192.407 43.6659 192.595 42.726C192.783 41.7862 193.247 40.9229 193.928 40.2453C194.61 39.5677 195.478 39.1062 196.423 38.9193C197.369 38.7323 198.349 38.8283 199.239 39.195C200.129 39.5617 200.89 40.1827 201.426 40.9794C201.961 41.7762 202.247 42.7129 202.247 43.6712C202.246 44.9558 201.732 46.1873 200.818 47.0956C199.905 48.004 198.666 48.5149 197.374 48.5163ZM197.374 39.3503C196.515 39.3503 195.674 39.6037 194.96 40.0785C194.245 40.5533 193.688 41.2282 193.359 42.0178C193.03 42.8073 192.944 43.6761 193.112 44.5143C193.279 45.3525 193.693 46.1224 194.301 46.7267C194.909 47.331 195.683 47.7425 196.526 47.9092C197.369 48.0759 198.243 47.9904 199.037 47.6633C199.831 47.3362 200.51 46.7824 200.988 46.0718C201.465 45.3612 201.72 44.5258 201.72 43.6712C201.719 42.5256 201.26 41.4273 200.446 40.6173C199.631 39.8072 198.526 39.3516 197.374 39.3503V39.3503Z" fill="#9F9FA9"/>
<path d="M4.87312 148.907C3.90931 148.907 2.96713 148.622 2.16573 148.09C1.36433 147.558 0.739715 146.801 0.370861 145.916C0.00200672 145.03 -0.0945158 144.056 0.0935 143.116C0.281516 142.176 0.745625 141.313 1.42714 140.635C2.10865 139.958 2.97696 139.496 3.92225 139.309C4.86755 139.122 5.84737 139.218 6.73783 139.585C7.62828 139.952 8.38936 140.573 8.92483 141.37C9.4603 142.166 9.74611 143.103 9.74611 144.061C9.74465 145.346 9.23079 146.578 8.31724 147.486C7.4037 148.394 6.16508 148.905 4.87312 148.907ZM4.87312 139.74C4.01356 139.74 3.1733 139.994 2.45859 140.469C1.74388 140.943 1.18682 141.618 0.857865 142.408C0.528908 143.197 0.442824 144.066 0.610501 144.904C0.778177 145.743 1.19208 146.513 1.79987 147.117C2.40767 147.721 3.18204 148.133 4.02509 148.299C4.86813 148.466 5.74197 148.381 6.5361 148.054C7.33023 147.727 8.00899 147.173 8.48654 146.462C8.96409 145.752 9.21898 144.916 9.21898 144.061C9.21766 142.916 8.75938 141.818 7.94466 141.008C7.12994 140.197 6.02532 139.742 4.87312 139.74Z" fill="#9F9FA9"/>
<path d="M40.871 79.6807C39.718 79.6807 38.5763 79.9065 37.511 80.3452C36.4458 80.7839 35.4779 81.4269 34.6626 82.2375C33.8473 83.0481 33.2006 84.0105 32.7593 85.0696C32.3181 86.1287 32.091 87.2639 32.091 88.4102C32.091 93.2315 40.871 109.143 40.871 109.143C40.871 109.143 49.651 93.2314 49.651 88.4102C49.651 87.2639 49.4239 86.1287 48.9826 85.0696C48.5414 84.0105 47.8947 83.0481 47.0794 82.2375C46.2641 81.4269 45.2962 80.7839 44.2309 80.3452C43.1657 79.9065 42.024 79.6807 40.871 79.6807ZM40.871 92.9933C39.9593 92.9933 39.0681 92.7245 38.3101 92.2209C37.5521 91.7173 36.9613 91.0015 36.6124 90.1641C36.2635 89.3267 36.1722 88.4052 36.3501 87.5161C36.5279 86.6271 36.9669 85.8105 37.6116 85.1696C38.2562 84.5286 39.0776 84.0921 39.9717 83.9153C40.8659 83.7384 41.7927 83.8292 42.635 84.1761C43.4772 84.523 44.1971 85.1104 44.7036 85.8641C45.2101 86.6177 45.4805 87.5038 45.4805 88.4102C45.4805 89.6257 44.9948 90.7914 44.1304 91.6509C43.2659 92.5104 42.0935 92.9933 40.871 92.9933Z" fill="#383EA8"/>
<path d="M110.891 46.9448C108.563 46.9448 106.33 47.8645 104.683 49.5017C103.036 51.1388 102.111 53.3592 102.111 55.6744C102.111 60.4956 110.891 76.4071 110.891 76.4071C110.891 76.4071 119.671 60.4956 119.671 55.6744C119.671 54.528 119.444 53.3929 119.003 52.3337C118.562 51.2746 117.915 50.3123 117.1 49.5017C116.284 48.691 115.317 48.048 114.251 47.6093C113.186 47.1706 112.044 46.9448 110.891 46.9448ZM110.891 60.2574C109.98 60.2574 109.088 59.9886 108.33 59.4851C107.572 58.9815 106.982 58.2657 106.633 57.4282C106.284 56.5908 106.193 55.6693 106.37 54.7803C106.548 53.8913 106.987 53.0747 107.632 52.4337C108.277 51.7928 109.098 51.3563 109.992 51.1794C110.886 51.0026 111.813 51.0934 112.655 51.4402C113.498 51.7871 114.217 52.3745 114.724 53.1282C115.23 53.8819 115.501 54.768 115.501 55.6744C115.501 56.8899 115.015 58.0556 114.151 58.9151C113.286 59.7746 112.114 60.2574 110.891 60.2574Z" fill="#383EA8"/>
<path d="M283.256 185.36H163.72V186H283.256V185.36Z" fill="#2F2E41"/>
<path d="M262.361 18.9811C260.503 24.4516 257.653 29.436 251.846 29.436C246.038 29.436 241.657 24.746 241.33 18.9811C240.912 11.6146 245.904 8.49559 251.846 8.5261C258.864 8.56215 264.566 12.4889 262.361 18.9811Z" fill="#2F2E41"/>
<path d="M262.084 18.1553H241.33V44.2927H262.084V18.1553Z" fill="#2F2E41"/>
<path d="M262.694 37.6279H264.459C264.459 37.6279 268.774 43.0883 266.812 50.4988C264.851 57.9093 266.42 59.2744 266.42 59.2744C266.42 59.2744 268.974 67.2993 266.228 79.3902C263.482 91.481 268.774 94.7668 268.774 94.7668L263.87 85.0161L261.124 59.2744L262.694 37.6279Z" fill="#575A89"/>
<path opacity="0.1" d="M262.694 38.2695H264.459C264.459 38.2695 268.774 43.7299 266.812 51.1404C264.851 58.5509 266.42 59.916 266.42 59.916C266.42 59.916 268.974 67.9409 266.228 80.0317C263.482 92.1226 268.774 95.4084 268.774 95.4084L263.87 85.6577L261.124 59.916L262.694 38.2695Z" fill="black"/>
<path d="M256.515 28.1695C256.515 28.1695 254.946 34.41 255.731 34.41C256.515 34.41 259.261 37.7252 259.261 37.7252L261.026 44.1606L259.653 48.8409L254.946 47.8659L249.062 41.4304L247.297 39.6753L245.728 34.0199C245.728 34.0199 247.689 31.6798 246.316 29.7296C244.943 27.7795 256.515 28.1695 256.515 28.1695Z" fill="#FBBEBE"/>
<path opacity="0.1" d="M256.515 28.1695C256.515 28.1695 254.946 34.41 255.731 34.41C256.515 34.41 259.261 37.7252 259.261 37.7252L261.026 44.1606L259.653 48.8409L254.946 47.8659L249.062 41.4304L247.297 39.6753L245.728 34.0199C245.728 34.0199 247.689 31.6798 246.316 29.7296C244.943 27.7795 256.515 28.1695 256.515 28.1695Z" fill="black"/>
<path d="M209.05 45.5259L204.734 38.5054C204.734 38.5054 200.077 28.2586 196.742 31.9638C193.408 35.6691 201.792 43.1857 201.792 43.1857L206.107 48.8411L209.05 45.5259Z" fill="#FBBEBE"/>
<path d="M266.322 106.565L263.184 129.381C263.184 129.381 263.576 131.136 259.653 137.572C255.731 144.007 245.139 158.048 245.139 158.048L242.001 152.198C242.001 152.198 245.727 133.672 252.2 129.771L251.415 101.689L266.322 106.565Z" fill="#FBBEBE"/>
<path opacity="0.1" d="M266.322 106.565L263.184 129.381C263.184 129.381 263.576 131.136 259.653 137.572C255.731 144.007 245.139 158.048 245.139 158.048L242.001 152.198C242.001 152.198 245.727 133.672 252.2 129.771L251.415 101.689L266.322 106.565Z" fill="black"/>
<path d="M242.001 149.858L246.316 158.048C246.316 158.048 242.785 167.994 244.158 168.969C245.531 169.944 247.297 178.72 243.57 177.745C239.843 176.77 236.901 172.869 236.901 172.284C236.901 171.699 239.059 163.509 237.882 161.559C236.705 159.609 235.921 159.024 235.921 159.024L232.978 163.899L231.998 163.314L236.901 155.123C236.901 155.123 237.49 153.563 239.843 152.588L242.001 149.858Z" fill="#2F2E41"/>
<path opacity="0.1" d="M242.001 149.858L246.316 158.048C246.316 158.048 242.785 167.994 244.158 168.969C245.531 169.944 247.297 178.72 243.57 177.745C239.843 176.77 236.901 172.869 236.901 172.284C236.901 171.699 239.059 163.509 237.882 161.559C236.705 159.609 235.921 159.024 235.921 159.024L232.978 163.899L231.998 163.314L236.901 155.123C236.901 155.123 237.49 153.563 239.843 152.588L242.001 149.858Z" fill="black"/>
<path d="M251.461 103.328C251.461 103.328 252.985 124.897 249.65 130.552V158.634L245.139 159.219C245.139 159.219 236.029 144.352 239.363 129.726C242.698 115.1 235.921 101.69 235.921 101.69L251.461 103.328Z" fill="#FBBEBE"/>
<path d="M250.337 32.9475C254.886 32.9475 258.575 29.2805 258.575 24.757C258.575 20.2334 254.886 16.5664 250.337 16.5664C245.787 16.5664 242.099 20.2334 242.099 24.757C242.099 29.2805 245.787 32.9475 250.337 32.9475Z" fill="#FBBEBE"/>
<path d="M258.673 46.306L250.435 35.9703L245.727 32.8501L243.766 35.3853L238.274 36.9454C238.274 36.9454 234.744 37.7254 231.017 42.0157C227.29 46.306 220.622 48.8412 220.622 48.8412L215.13 47.8661C215.13 47.8661 208.657 44.9409 208.657 44.1609C208.657 43.3808 202.969 49.4262 204.342 51.7664C205.715 54.1066 208.657 57.0317 210.226 58.5919C211.795 60.152 212.384 64.6373 221.995 63.2722C231.605 61.9071 235.136 57.2268 235.136 57.2268C235.136 57.2268 236.901 66.1974 242.001 67.9525C247.1 69.7076 263.772 70.8777 263.772 70.8777L267.303 59.1769C267.303 59.1769 271.226 54.1066 265.93 46.6961C265.93 46.6961 265.828 42.5516 265.259 39.7937C265.037 38.721 264.745 37.8581 264.361 37.5304C262.988 36.3603 255.731 34.4102 255.731 34.4102C255.731 34.4102 256.907 38.3105 257.496 38.5055C258.084 38.7005 259.457 45.3309 258.673 46.306Z" fill="#575A89"/>
<path d="M232.292 104.518C242.169 103.835 247.92 105.444 250.486 106.671C250.963 106.885 251.412 107.157 251.823 107.478C252.012 107.636 252.102 107.759 252.102 107.833C252.102 108.418 265.636 109.588 270.539 108.418C275.443 107.248 267.205 82.0914 265.047 79.9462C262.89 77.8011 264.053 69.9499 264.053 69.9499C264.053 69.9499 259.751 69.0255 258.575 69.4155C257.398 69.8056 251.317 68.8305 249.16 67.6604C247.002 66.4903 244.256 67.2704 242.491 66.8804C241.703 66.7068 241.305 66.9993 241.106 67.3776C240.798 67.9452 240.332 68.4128 239.765 68.7252C235.601 71.1102 232.259 87.6005 229.742 96.7174C226.996 106.663 232.292 104.518 232.292 104.518Z" fill="#191847"/>
<path d="M250.435 156.878L251.219 161.169C251.219 161.169 255.338 167.019 254.161 171.894C254.161 171.894 255.142 178.33 258.673 180.085C262.203 181.84 259.261 185.935 255.927 185.74C252.592 185.545 249.454 185.935 249.062 184.96C248.67 183.985 246.316 174.43 246.316 174.43L245.672 185.612L243.711 185.807L244.355 172.869C244.355 172.869 242.785 169.944 244.943 165.069L244.398 157.585C244.398 157.585 249.846 158.829 250.435 156.878Z" fill="#2F2E41"/>
<path opacity="0.1" d="M250.486 106.67C250.963 106.885 251.412 107.156 251.824 107.478C251.927 105.635 252.528 94.4897 251.808 94.6691L250.486 106.67Z" fill="black"/>
<path d="M246.926 13.4783C246.926 13.4783 246.835 12.9734 243.267 14.3037C239.699 15.634 237.56 25.4513 239.344 31.2161C240.063 33.5393 239.478 35.2143 238.524 36.3863C234.942 40.7843 236.352 47.3899 241.57 49.6515C241.717 49.7154 241.867 49.7785 242.02 49.8408L244.25 51.1712C244.25 51.1712 241.408 47.4521 242.83 42.6947C244.066 38.6413 244.218 34.3378 243.273 30.2079C243.11 29.5112 242.924 28.7931 242.714 28.0602C240.93 21.852 241.797 22.5689 248.042 16.3607C248.042 16.3607 251.61 19.0214 254.732 20.3517C257.854 21.682 260.53 23.0124 258.3 27.4468C256.07 31.8813 250.718 35.8723 254.286 41.6371C257.854 47.4019 258.3 45.1847 257.854 47.4019L257.408 49.6191L260.084 46.9584L258.3 50.506C258.3 50.506 264.098 50.506 265.882 46.0716L266.774 46.9584C266.774 46.9584 270.342 40.7502 263.652 34.9854C263.652 34.9854 261.422 33.6551 264.544 29.2206C267.666 24.7862 265.268 15.2521 261.254 13.4783C257.24 11.7045 246.926 13.4783 246.926 13.4783Z" fill="#2F2E41"/>
<path d="M251.845 10.7271C254.138 10.7271 255.996 8.87936 255.996 6.6001C255.996 4.32085 254.138 2.47314 251.845 2.47314C249.553 2.47314 247.695 4.32085 247.695 6.6001C247.695 8.87936 249.553 10.7271 251.845 10.7271Z" fill="#2F2E41"/>
<path d="M246.865 4.39893C246.865 3.37588 247.247 2.38932 247.937 1.63062C248.627 0.871918 249.576 0.395157 250.6 0.292813C250.464 0.279328 250.325 0.271973 250.185 0.271973C249.084 0.271973 248.029 0.706775 247.25 1.48073C246.472 2.25469 246.034 3.3044 246.034 4.39893C246.034 5.49347 246.472 6.54318 247.25 7.31713C248.029 8.09109 249.084 8.52589 250.185 8.52589C250.325 8.52589 250.464 8.51854 250.6 8.50505C249.576 8.40271 248.627 7.92594 247.937 7.16724C247.247 6.40854 246.865 5.42198 246.865 4.39893Z" fill="#2F2E41"/>
<path d="M197.374 15.5181C196.221 15.5181 195.079 15.7439 194.014 16.1826C192.949 16.6213 191.981 17.2643 191.166 18.0749C190.35 18.8855 189.704 19.8479 189.262 20.907C188.821 21.9661 188.594 23.1013 188.594 24.2476C188.594 29.0688 197.374 44.9804 197.374 44.9804C197.374 44.9804 206.154 29.0688 206.154 24.2476C206.154 23.1013 205.927 21.9661 205.486 20.907C205.045 19.8479 204.398 18.8855 203.582 18.0749C202.767 17.2643 201.799 16.6213 200.734 16.1826C199.669 15.7439 198.527 15.5181 197.374 15.5181ZM197.374 28.8307C196.462 28.8307 195.571 28.5619 194.813 28.0583C194.055 27.5547 193.464 26.8389 193.116 26.0015C192.767 25.1641 192.675 24.2426 192.853 23.3535C193.031 22.4645 193.47 21.6479 194.115 21.007C194.759 20.366 195.581 19.9295 196.475 19.7527C197.369 19.5759 198.296 19.6666 199.138 20.0135C199.98 20.3604 200.7 20.9478 201.207 21.7015C201.713 22.4551 201.984 23.3412 201.984 24.2477C201.984 25.4631 201.498 26.6289 200.634 27.4883C199.769 28.3478 198.597 28.8307 197.374 28.8307Z" fill="#383EA8"/>
<path d="M126.595 177.946C129.219 177.946 131.346 175.831 131.346 173.222C131.346 170.613 129.219 168.499 126.595 168.499C123.972 168.499 121.845 170.613 121.845 173.222C121.845 175.831 123.972 177.946 126.595 177.946Z" fill="#E2508C"/>
<path d="M156.153 157.966C158.777 157.966 160.904 155.851 160.904 153.242C160.904 150.633 158.777 148.519 156.153 148.519C153.529 148.519 151.402 150.633 151.402 153.242C151.402 155.851 153.529 157.966 156.153 157.966Z" fill="#E2508C"/>
<path d="M119.6 139.362C122.224 139.362 124.351 137.247 124.351 134.638C124.351 132.029 122.224 129.915 119.6 129.915C116.976 129.915 114.849 132.029 114.849 134.638C114.849 137.247 116.976 139.362 119.6 139.362Z" fill="#E2508C"/>
</g>
<defs>
<clipPath id="clip0_8_213">
<rect width="299" height="186" fill="white"/>
</clipPath>
</defs>
</svg>
