<svg width="101" height="90" viewBox="0 0 101 90" fill="none" xmlns="http://www.w3.org/2000/svg">
<path d="M59.7766 75.9302C63.6502 75.9302 66.7905 73.132 66.7905 69.6802C66.7905 66.2284 63.6502 63.4302 59.7766 63.4302C55.9029 63.4302 52.7627 66.2284 52.7627 69.6802C52.7627 73.132 55.9029 75.9302 59.7766 75.9302Z" fill="#FBBEBE"/>
<path d="M22.8835 75.9302C26.7572 75.9302 29.8974 73.132 29.8974 69.6802C29.8974 66.2284 26.7572 63.4302 22.8835 63.4302C19.0099 63.4302 15.8696 66.2284 15.8696 69.6802C15.8696 73.132 19.0099 75.9302 22.8835 75.9302Z" fill="#FBBEBE"/>
<path d="M52.0613 52.5552C43.3641 55.3052 42.3822 64.5552 42.3822 64.5552L32.7002 64.5802L34.2461 70.6802L46.3099 70.8052C46.3099 67.5231 47.7731 64.3755 50.3775 62.0547C52.9819 59.734 56.5142 58.4302 60.1974 58.4302C63.8806 58.4302 67.413 59.734 70.0174 62.0547C72.6218 64.3755 74.0849 67.5231 74.0849 70.8052C75.1326 64.0984 73.7569 57.2686 70.1572 51.3052" fill="#EA5A47"/>
<path d="M65.8085 48.4302C65.3475 48.518 64.8771 48.5599 64.4057 48.5552H45.7488C45.377 48.5558 45.0206 48.6877 44.7577 48.922C44.4948 49.1563 44.3467 49.4739 44.346 49.8052V51.3052C44.3706 51.6295 44.5263 51.9348 44.7842 52.1647C45.0422 52.3945 45.3848 52.5332 45.7488 52.5552H68.7543C69.1183 52.5332 69.4609 52.3945 69.7189 52.1647C69.9768 51.9348 70.1325 51.6295 70.1571 51.3052V30.6802C70.1564 30.3489 70.0083 30.0313 69.7454 29.797C69.4825 29.5627 69.1261 29.4308 68.7543 29.4302H67.071C66.3696 29.4302 66.4818 29.9689 66.4818 30.7189L65.6682 47.0552C65.753 47.5098 65.7999 47.9694 65.8085 48.4302Z" fill="#575A89"/>
<path d="M61.8303 17.6787C63.8438 17.6787 65.4761 16.2241 65.4761 14.4299C65.4761 12.6357 63.8438 11.1812 61.8303 11.1812C59.8167 11.1812 58.1844 12.6357 58.1844 14.4299C58.1844 16.2241 59.8167 17.6787 61.8303 17.6787Z" fill="#FBBEBE"/>
<path d="M44.2773 42.8211L52.4639 42.356L52.5144 42.3123L54.1935 31.5436L55.1081 26.1498C55.3359 24.9841 56.0231 23.9291 57.0461 23.1747C58.0691 22.4203 59.3607 22.0161 60.6884 22.0348C62.013 22.0975 63.2633 22.5998 64.193 23.4428C65.1227 24.2859 65.6645 25.4086 65.7118 26.5898L65.2124 45.7498C65.1911 46.5683 64.8112 47.3469 64.154 47.919C63.4968 48.4911 62.6144 48.8113 61.6956 48.8111H55.3536L43.7555 48.8436L32.8797 61.8448C32.3677 62.5298 31.1347 62.1848 30.8429 61.4036C30.8448 60.4885 31.0697 59.5847 31.5022 58.7548L37.5285 46.8736C38.0521 45.6423 39.0574 44.6212 40.3593 43.9986C41.5515 43.3531 42.8898 42.9518 44.2773 42.8236V42.8211Z" fill="#FBBEBE"/>
<path d="M61.5609 17.5576C63.5744 17.5576 65.2067 16.103 65.2067 14.3088C65.2067 12.5146 63.5744 11.0601 61.5609 11.0601C59.5473 11.0601 57.915 12.5146 57.915 14.3088C57.915 16.103 59.5473 17.5576 61.5609 17.5576Z" stroke="black" stroke-width="2" stroke-miterlimit="10"/>
<path d="M44.8609 42.5698L53.0489 42.1048L53.0994 42.0623L54.7799 31.2923L55.6931 25.8986C55.9211 24.7331 56.6085 23.6783 57.6315 22.9242C58.6544 22.1701 59.9459 21.766 61.2734 21.7848V21.7848C62.598 21.8475 63.8482 22.3498 64.778 23.1928C65.7077 24.0359 66.2495 25.1586 66.2967 26.3398L65.7973 45.4973C65.7761 46.3158 65.3962 47.0944 64.739 47.6665C64.0817 48.2386 63.1993 48.5588 62.2806 48.5586H55.9386L44.3404 48.5911L33.1547 61.7948C32.6427 62.4798 31.3549 62.5761 31.0631 61.7948C30.9894 60.9214 31.1596 60.0454 31.5583 59.2448L38.1135 46.6211C38.637 45.3898 39.6424 44.3687 40.9443 43.7461V43.7461C42.1365 43.1006 43.4747 42.6992 44.8623 42.5711L44.8609 42.5698Z" stroke="black" stroke-width="2" stroke-linecap="round" stroke-linejoin="round"/>
<path d="M61.6619 26.2998L55.7829 35.6211L42.5631 33.4961" stroke="black" stroke-width="2" stroke-linecap="round" stroke-linejoin="round"/>
<path d="M32.4224 64.5547C33.6853 66.3951 34.319 68.5235 34.246 70.6797L46.3099 70.8047C46.3099 67.5226 47.7731 64.375 50.3775 62.0542C52.9819 59.7335 56.5142 58.4297 60.1974 58.4297C63.8806 58.4297 67.413 59.7335 70.0174 62.0542C72.6218 64.375 74.0849 67.5226 74.0849 70.8047C75.1326 64.0979 73.7569 57.2681 70.1571 51.3047" stroke="black" stroke-width="2" stroke-linecap="round" stroke-linejoin="round"/>
<path d="M52.0613 52.5547C43.3641 55.3047 42.3821 64.5547 42.3821 64.5547H37.8932" stroke="black" stroke-width="2" stroke-linecap="round" stroke-linejoin="round"/>
<path d="M65.8086 48.4297C65.3476 48.5175 64.8771 48.5595 64.4058 48.5547H45.7488C45.377 48.5553 45.0207 48.6873 44.7578 48.9215C44.4948 49.1558 44.3468 49.4734 44.3461 49.8047V51.3047C44.3707 51.629 44.5264 51.9343 44.7843 52.1642C45.0422 52.394 45.3849 52.5327 45.7488 52.5547H68.7544C69.1183 52.5327 69.461 52.394 69.7189 52.1642C69.9769 51.9343 70.1326 51.629 70.1572 51.3047V30.6797C70.1564 30.3484 70.0084 30.0308 69.7455 29.7965C69.4826 29.5623 69.1262 29.4303 68.7544 29.4297H67.0711C66.3697 29.4297 66.4819 29.9684 66.4819 30.7184L65.6683 47.0547C65.7531 47.5093 65.7999 47.9689 65.8086 48.4297V48.4297Z" stroke="black" stroke-width="2" stroke-linecap="round" stroke-linejoin="round"/>
<path d="M22.8835 75.9287C26.7572 75.9287 29.8974 73.1305 29.8974 69.6787C29.8974 66.2269 26.7572 63.4287 22.8835 63.4287C19.0099 63.4287 15.8696 66.2269 15.8696 69.6787C15.8696 73.1305 19.0099 75.9287 22.8835 75.9287Z" stroke="black" stroke-width="2" stroke-miterlimit="10"/>
<path d="M59.7766 75.9297C63.6502 75.9297 66.7905 73.1315 66.7905 69.6797C66.7905 66.2279 63.6502 63.4297 59.7766 63.4297C55.9029 63.4297 52.7627 66.2279 52.7627 69.6797C52.7627 73.1315 55.9029 75.9297 59.7766 75.9297Z" stroke="black" stroke-width="2" stroke-miterlimit="10"/>
<path d="M34.3863 70.8047C34.4095 70.2185 34.3625 69.6319 34.246 69.0547C33.8129 66.4064 32.4359 63.9524 30.3183 62.0547C29.1904 60.9261 27.748 60.0829 26.1371 59.6106C24.5261 59.1382 22.8037 59.0534 21.1441 59.3647" stroke="black" stroke-width="2" stroke-linecap="round" stroke-linejoin="round"/>
<path d="M26.1702 58.731L36.5508 36.856H40.7591L43.9855 36.981" stroke="black" stroke-width="2" stroke-linecap="round" stroke-linejoin="round"/>
<path d="M40.7591 34.856V36.856" stroke="black" stroke-width="2" stroke-linecap="round" stroke-linejoin="round"/>
<path d="M65.7117 10.2661C65.7117 10.2661 66.5239 9.92861 67.0093 10.2886C67.5816 10.7099 67.9716 12.2874 68.6477 12.9699C69.306 13.6545 70.2004 14.1253 71.191 14.3086" stroke="black" stroke-width="2" stroke-linecap="round" stroke-linejoin="round"/>
</svg>
